<svg width="27" height="27" viewBox="0 0 27 27" fill="none" xmlns="http://www.w3.org/2000/svg">
<path d="M2.67577 15.1171L1.3867 13.8281C0.85936 13.2421 0.85936 12.3632 1.3867 11.8359L12.7539 0.410107C13.3398 -0.117237 14.2187 -0.117237 14.7461 0.410107L26.1719 11.8359C26.6992 12.3632 26.6992 13.2421 26.1719 13.8281L24.8828 15.1171C24.2969 15.6445 23.418 15.6445 22.832 15.1171L16.0937 8.0273V24.8437C16.0937 25.664 15.5078 26.25 14.6875 26.25H12.8125C12.0508 26.25 11.4062 25.664 11.4062 24.8437V8.0273L4.72655 15.1171C4.14061 15.6445 3.2617 15.7031 2.67577 15.1171Z" fill="white"/>
</svg>
