<svg width="21" height="14" viewBox="0 0 21 14" fill="none" xmlns="http://www.w3.org/2000/svg">
<path d="M8.15625 6.00708C9.66797 6.42896 10.4062 7.58911 10.4062 9.13599C10.4062 11.6672 8.29688 12.7571 6.01172 12.7571H0V0.311768H5.87109C7.98047 0.311768 9.84375 0.909424 9.84375 3.40552C9.84375 4.63599 9.24609 5.44458 8.15625 6.00708ZM2.70703 2.42114V5.33911H5.48438C6.46875 5.33911 7.17188 4.91724 7.17188 3.86255C7.17188 2.70239 6.29297 2.42114 5.30859 2.42114H2.70703ZM5.66016 10.6477C6.75 10.6477 7.66406 10.261 7.66406 8.99536C7.66406 7.72974 6.92578 7.20239 5.69531 7.20239H2.70703V10.6477H5.66016ZM18.2461 2.17505H13.2188V0.94458H18.2461V2.17505ZM20.25 8.39771C20.25 8.53833 20.2148 8.71411 20.2148 8.85474H13.7109C13.7109 10.2961 14.4844 11.1399 15.9258 11.1399C16.6641 11.1399 17.6484 10.7532 17.8945 9.97974H20.0742C19.4062 12.0188 18 13.0032 15.8555 13.0032C13.0078 13.0032 11.2148 11.0696 11.2148 8.25708C11.2148 5.55005 13.0781 3.47583 15.8555 3.47583C18.668 3.47583 20.25 5.72583 20.25 8.39771ZM13.7109 7.27271H17.7539C17.6484 6.07739 17.0156 5.37427 15.75 5.37427C14.5898 5.37427 13.7812 6.11255 13.7109 7.27271Z" fill="black"/>
</svg>
