<svg width="64" height="65" viewBox="0 0 64 65" fill="none" xmlns="http://www.w3.org/2000/svg">
<path d="M31.8199 57.992C45.9602 57.992 57.4232 46.529 57.4232 32.3887C57.4232 18.2484 45.9602 6.7854 31.8199 6.7854C17.6796 6.7854 6.21658 18.2484 6.21658 32.3887C6.21658 46.529 17.6796 57.992 31.8199 57.992Z" stroke="#0C2742" stroke-width="1.31959" stroke-miterlimit="1.5" stroke-linecap="round" stroke-linejoin="round"/>
<path d="M31.8195 47.8332C40.3492 47.8332 47.2639 40.9185 47.2639 32.3888C47.2639 23.8591 40.3492 16.9443 31.8195 16.9443C23.2897 16.9443 16.375 23.8591 16.375 32.3888C16.375 40.9185 23.2897 47.8332 31.8195 47.8332Z" stroke="#0C2742" stroke-width="1.31959" stroke-miterlimit="1.5" stroke-linecap="round" stroke-linejoin="round"/>
<path d="M31.8195 37.9232C34.876 37.9232 37.3539 35.4454 37.3539 32.3888C37.3539 29.3323 34.876 26.8545 31.8195 26.8545C28.763 26.8545 26.2852 29.3323 26.2852 32.3888C26.2852 35.4454 28.763 37.9232 31.8195 37.9232Z" stroke="#0C2742" stroke-width="1.31959" stroke-miterlimit="1.5" stroke-linecap="round" stroke-linejoin="round"/>
</svg>
