<svg width="64" height="65" viewBox="0 0 64 65" fill="none" xmlns="http://www.w3.org/2000/svg">
<path d="M15.5155 21.5629C18.5724 21.5629 21.0505 19.0848 21.0505 16.0279C21.0505 12.971 18.5724 10.4929 15.5155 10.4929C12.4586 10.4929 9.98047 12.971 9.98047 16.0279C9.98047 19.0848 12.4586 21.5629 15.5155 21.5629Z" stroke="#0C2742" stroke-width="1.31959" stroke-miterlimit="1.5" stroke-linecap="round" stroke-linejoin="round"/>
<path d="M31.8202 21.5629C34.8771 21.5629 37.3552 19.0848 37.3552 16.0279C37.3552 12.971 34.8771 10.4929 31.8202 10.4929C28.7633 10.4929 26.2852 12.971 26.2852 16.0279C26.2852 19.0848 28.7633 21.5629 31.8202 21.5629Z" stroke="#0C2742" stroke-width="1.31959" stroke-miterlimit="1.5" stroke-linecap="round" stroke-linejoin="round"/>
<path d="M15.5155 37.9238C18.5724 37.9238 21.0505 35.4457 21.0505 32.3888C21.0505 29.3319 18.5724 26.8538 15.5155 26.8538C12.4586 26.8538 9.98047 29.3319 9.98047 32.3888C9.98047 35.4457 12.4586 37.9238 15.5155 37.9238Z" stroke="#0C2742" stroke-width="1.31959" stroke-miterlimit="1.5" stroke-linecap="round" stroke-linejoin="round"/>
<path d="M48.124 21.5628C51.1809 21.5628 53.6591 19.0847 53.6591 16.0278C53.6591 12.9709 51.1809 10.4928 48.124 10.4928C45.0671 10.4928 42.589 12.9709 42.589 16.0278C42.589 19.0847 45.0671 21.5628 48.124 21.5628Z" stroke="#0C2742" stroke-width="1.31959" stroke-miterlimit="1.5" stroke-linecap="round" stroke-linejoin="round"/>
<path d="M31.8202 37.9238C34.8771 37.9238 37.3552 35.4457 37.3552 32.3888C37.3552 29.3319 34.8771 26.8538 31.8202 26.8538C28.7633 26.8538 26.2852 29.3319 26.2852 32.3888C26.2852 35.4457 28.7633 37.9238 31.8202 37.9238Z" stroke="#0C2742" stroke-width="1.31959" stroke-miterlimit="1.5" stroke-linecap="round" stroke-linejoin="round"/>
<path d="M15.5155 54.2839C18.5724 54.2839 21.0505 51.8058 21.0505 48.7489C21.0505 45.692 18.5724 43.2139 15.5155 43.2139C12.4586 43.2139 9.98047 45.692 9.98047 48.7489C9.98047 51.8058 12.4586 54.2839 15.5155 54.2839Z" stroke="#0C2742" stroke-width="1.31959" stroke-miterlimit="1.5" stroke-linecap="round" stroke-linejoin="round"/>
<path d="M48.124 37.9238C51.1809 37.9238 53.6591 35.4457 53.6591 32.3888C53.6591 29.3319 51.1809 26.8538 48.124 26.8538C45.0671 26.8538 42.589 29.3319 42.589 32.3888C42.589 35.4457 45.0671 37.9238 48.124 37.9238Z" stroke="#0C2742" stroke-width="1.31959" stroke-miterlimit="1.5" stroke-linecap="round" stroke-linejoin="round"/>
<path d="M31.8202 54.2839C34.8771 54.2839 37.3552 51.8058 37.3552 48.7489C37.3552 45.692 34.8771 43.2139 31.8202 43.2139C28.7633 43.2139 26.2852 45.692 26.2852 48.7489C26.2852 51.8058 28.7633 54.2839 31.8202 54.2839Z" stroke="#0C2742" stroke-width="1.31959" stroke-miterlimit="1.5" stroke-linecap="round" stroke-linejoin="round"/>
<path d="M48.124 54.284C51.1809 54.284 53.6591 51.8059 53.6591 48.749C53.6591 45.6921 51.1809 43.214 48.124 43.214C45.0671 43.214 42.589 45.6921 42.589 48.749C42.589 51.8059 45.0671 54.284 48.124 54.284Z" stroke="#0C2742" stroke-width="1.31959" stroke-miterlimit="1.5" stroke-linecap="round" stroke-linejoin="round"/>
</svg>
