<svg width="64" height="65" viewBox="0 0 64 65" fill="none" xmlns="http://www.w3.org/2000/svg">
<path d="M32 52.845C43.1982 52.845 52.2761 43.767 52.2761 32.5688C52.2761 21.3707 43.1982 12.2927 32 12.2927C20.8018 12.2927 11.7239 21.3707 11.7239 32.5688C11.7239 43.767 20.8018 52.845 32 52.845Z" stroke="white" stroke-width="1.31959" stroke-miterlimit="1.5" stroke-linecap="round" stroke-linejoin="round"/>
<path d="M49.2844 27.8395C52.3409 27.8395 54.8187 25.3616 54.8187 22.3051C54.8187 19.2486 52.3409 16.7708 49.2844 16.7708C46.2278 16.7708 43.75 19.2486 43.75 22.3051C43.75 25.3616 46.2278 27.8395 49.2844 27.8395Z" fill="#0C2742" stroke="white" stroke-width="1.31959" stroke-miterlimit="1.5" stroke-linecap="round" stroke-linejoin="round"/>
<path d="M49.2844 48.0067C52.3409 48.0067 54.8187 45.5289 54.8187 42.4723C54.8187 39.4158 52.3409 36.938 49.2844 36.938C46.2278 36.938 43.75 39.4158 43.75 42.4723C43.75 45.5289 46.2278 48.0067 49.2844 48.0067Z" fill="#0C2742" stroke="white" stroke-width="1.31959" stroke-miterlimit="1.5" stroke-linecap="round" stroke-linejoin="round"/>
<path d="M31.8195 58.0897C34.876 58.0897 37.3539 55.6119 37.3539 52.5553C37.3539 49.4988 34.876 47.021 31.8195 47.021C28.763 47.021 26.2852 49.4988 26.2852 52.5553C26.2852 55.6119 28.763 58.0897 31.8195 58.0897Z" fill="#0C2742" stroke="white" stroke-width="1.31959" stroke-miterlimit="1.5" stroke-linecap="round" stroke-linejoin="round"/>
<path d="M14.3545 48.0067C17.411 48.0067 19.8888 45.5289 19.8888 42.4723C19.8888 39.4158 17.411 36.938 14.3545 36.938C11.2979 36.938 8.82012 39.4158 8.82012 42.4723C8.82012 45.5289 11.2979 48.0067 14.3545 48.0067Z" fill="#0C2742" stroke="white" stroke-width="1.31959" stroke-miterlimit="1.5" stroke-linecap="round" stroke-linejoin="round"/>
<path d="M14.3545 27.8395C17.411 27.8395 19.8888 25.3616 19.8888 22.3051C19.8888 19.2486 17.411 16.7708 14.3545 16.7708C11.2979 16.7708 8.82012 19.2486 8.82012 22.3051C8.82012 25.3616 11.2979 27.8395 14.3545 27.8395Z" fill="#0C2742" stroke="white" stroke-width="1.32" stroke-miterlimit="1.5" stroke-linecap="round" stroke-linejoin="round"/>
<path d="M31.8195 17.7557C34.876 17.7557 37.3539 15.2779 37.3539 12.2214C37.3539 9.16482 34.876 6.68701 31.8195 6.68701C28.763 6.68701 26.2852 9.16482 26.2852 12.2214C26.2852 15.2779 28.763 17.7557 31.8195 17.7557Z" fill="#0C2742" stroke="white" stroke-width="1.31959" stroke-miterlimit="1.5" stroke-linecap="round" stroke-linejoin="round"/>
</svg>
