<svg width="206" height="164" viewBox="0 0 206 164" fill="none" xmlns="http://www.w3.org/2000/svg">
<path d="M51.318 0.756319C40.1188 0.756319 30.7862 4.62268 23.32 12.3554C15.8539 20.0882 12.1209 29.0209 12.1209 39.1535C12.0551 48.5779 15.4738 57.6943 21.7202 64.7516C27.7254 72.0075 36.3472 76.6058 45.7184 77.5507C44.6518 90.883 40.3855 102.482 32.9193 112.348C25.4532 122.214 14.7873 131.68 0.921692 140.746L15.3206 163.944C35.5858 153.812 52.9179 137.28 67.3168 114.348C81.7158 91.4163 88.9152 68.218 88.9152 44.7531C88.9152 31.954 85.1822 21.4214 77.716 13.1554C70.2499 4.88931 61.4506 0.756319 51.318 0.756319ZM168.109 0.756319C163.017 0.67911 157.965 1.6716 153.279 3.66962C148.594 5.66764 144.381 8.62669 140.911 12.3554C133.445 20.0882 129.712 29.0209 129.712 39.1535C129.646 48.5779 133.065 57.6943 139.312 64.7516C145.554 72.137 154.474 76.7408 164.11 77.5507C163.043 90.883 158.643 102.482 150.911 112.348C143.178 122.214 132.379 131.68 118.513 140.746L132.912 163.944C152.644 153.812 169.709 137.28 184.108 114.348C198.507 91.4163 205.707 68.218 205.707 44.7531C205.707 31.954 201.974 21.4214 194.507 13.1554C187.041 4.88931 178.242 0.756319 168.109 0.756319Z" fill="#F5F5F3"/>
</svg>
