<svg width="56" height="56" viewBox="0 0 56 56" fill="none" xmlns="http://www.w3.org/2000/svg">
<path d="M21.8983 45.9806C20.5033 46.9755 18.8321 47.5092 17.1188 47.5068C15.6046 47.5067 14.1197 47.0899 12.8267 46.302C11.5337 45.5142 10.4825 44.3857 9.78812 43.0401C9.09377 41.6946 8.7831 40.1839 8.89015 38.6736C8.99719 37.1632 9.51782 35.7115 10.395 34.4773L21.8983 45.9806ZM38.1288 31.2461L31.9963 34.4141C31.6589 34.5857 31.3752 34.8468 31.1763 35.1689C30.9774 35.491 30.871 35.8616 30.8688 36.2401V42.2736C30.871 42.6521 30.9774 43.0227 31.1763 43.3448C31.3752 43.6669 31.6589 43.928 31.9963 44.0996L38.1288 47.2676C38.4349 47.4253 38.7743 47.5076 39.1188 47.5076C39.4632 47.5076 39.8026 47.4253 40.1088 47.2676L46.2413 44.0996C46.5787 43.928 46.8623 43.6669 47.0612 43.3448C47.2601 43.0227 47.3665 42.6521 47.3688 42.2736V36.2401C47.3665 35.8616 47.2601 35.491 47.0612 35.1689C46.8623 34.8468 46.5787 34.5857 46.2413 34.4141L40.1088 31.2461C39.8026 31.0883 39.4632 31.006 39.1188 31.006C38.7743 31.006 38.4349 31.0883 38.1288 31.2461ZM23.8425 44.0363C24.8373 42.6413 25.3709 40.9702 25.3688 39.2568C25.3686 37.7427 24.9518 36.2578 24.1639 34.9648C23.3761 33.6718 22.2476 32.6206 20.9021 31.9262C19.5565 31.2318 18.0458 30.9212 16.5355 31.0282C15.0252 31.1353 13.5734 31.6559 12.3393 32.5331L23.8425 44.0363ZM36.3688 9.00684C34.9101 9.00684 33.5111 9.5863 32.4797 10.6177C31.4482 11.6492 30.8688 13.0481 30.8688 14.5068V20.0068C30.8688 21.4655 31.4482 22.8645 32.4797 23.8959C33.5111 24.9274 34.9101 25.5068 36.3688 25.5068H41.8688C43.3274 25.5068 44.7264 24.9274 45.7578 23.8959C46.7893 22.8645 47.3688 21.4655 47.3688 20.0068V14.5068C47.3688 13.0481 46.7893 11.6492 45.7578 10.6177C44.7264 9.5863 43.3274 9.00684 41.8688 9.00684H36.3688ZM14.1295 10.8603C14.4061 10.3041 14.8325 9.83609 15.3606 9.50892C15.8886 9.18176 16.4975 9.00843 17.1188 9.00843C17.74 9.00843 18.3489 9.18176 18.877 9.50892C19.4051 9.83609 19.8314 10.3041 20.108 10.8603L25.003 20.5871C26.1305 22.8393 24.5108 25.5068 22.0083 25.5068H12.2238C9.72126 25.5068 8.09876 22.8393 9.23451 20.5843L14.1295 10.8603Z" fill="black"/>
</svg>
