<svg width="56" height="56" viewBox="0 0 56 56" fill="none" xmlns="http://www.w3.org/2000/svg">
<path d="M23.2261 12.2152H50.7261M23.2261 28.2569H50.7261M23.2261 44.2985H50.7261" stroke="black" stroke-width="4.58333" stroke-linecap="round" stroke-linejoin="round"/>
<path d="M9.47606 32.8403C12.0074 32.8403 14.0594 30.7882 14.0594 28.2569C14.0594 25.7256 12.0074 23.6736 9.47606 23.6736C6.94476 23.6736 4.89273 25.7256 4.89273 28.2569C4.89273 30.7882 6.94476 32.8403 9.47606 32.8403Z" stroke="black" stroke-width="4.58333" stroke-linecap="round" stroke-linejoin="round"/>
<path d="M9.47606 48.8819C12.0074 48.8819 14.0594 46.8298 14.0594 44.2985C14.0594 41.7672 12.0074 39.7152 9.47606 39.7152C6.94476 39.7152 4.89273 41.7672 4.89273 44.2985C4.89273 46.8298 6.94476 48.8819 9.47606 48.8819Z" stroke="black" stroke-width="4.58333" stroke-linecap="round" stroke-linejoin="round"/>
<path d="M4.89273 12.2152L8.33023 15.6527L15.2052 8.77771" stroke="black" stroke-width="4.58333" stroke-linecap="round" stroke-linejoin="round"/>
</svg>
