<svg width="17" height="17" viewBox="0 0 17 17" fill="none" xmlns="http://www.w3.org/2000/svg">
<path d="M8.57031 4.27783C10.7852 4.27783 12.6133 6.10596 12.6133 8.3208C12.6133 10.5708 10.7852 12.3638 8.57031 12.3638C6.32031 12.3638 4.52734 10.5708 4.52734 8.3208C4.52734 6.10596 6.32031 4.27783 8.57031 4.27783ZM8.57031 10.9575C10.0117 10.9575 11.1719 9.79736 11.1719 8.3208C11.1719 6.87939 10.0117 5.71924 8.57031 5.71924C7.09375 5.71924 5.93359 6.87939 5.93359 8.3208C5.93359 9.79736 7.12891 10.9575 8.57031 10.9575ZM13.7031 4.13721C13.7031 4.66455 13.2812 5.08643 12.7539 5.08643C12.2266 5.08643 11.8047 4.66455 11.8047 4.13721C11.8047 3.60986 12.2266 3.18799 12.7539 3.18799C13.2812 3.18799 13.7031 3.60986 13.7031 4.13721ZM16.375 5.08643C16.4453 6.38721 16.4453 10.2896 16.375 11.5903C16.3047 12.856 16.0234 13.9458 15.1094 14.895C14.1953 15.8091 13.0703 16.0903 11.8047 16.1606C10.5039 16.231 6.60156 16.231 5.30078 16.1606C4.03516 16.0903 2.94531 15.8091 1.99609 14.895C1.08203 13.9458 0.800781 12.856 0.730469 11.5903C0.660156 10.2896 0.660156 6.38721 0.730469 5.08643C0.800781 3.8208 1.08203 2.6958 1.99609 1.78174C2.94531 0.867676 4.03516 0.586426 5.30078 0.516113C6.60156 0.445801 10.5039 0.445801 11.8047 0.516113C13.0703 0.586426 14.1953 0.867676 15.1094 1.78174C16.0234 2.6958 16.3047 3.8208 16.375 5.08643ZM14.6875 12.9614C15.1094 11.9419 15.0039 9.48096 15.0039 8.3208C15.0039 7.1958 15.1094 4.73486 14.6875 3.68018C14.4062 3.01221 13.8789 2.44971 13.2109 2.20361C12.1562 1.78174 9.69531 1.88721 8.57031 1.88721C7.41016 1.88721 4.94922 1.78174 3.92969 2.20361C3.22656 2.48486 2.69922 3.01221 2.41797 3.68018C1.99609 4.73486 2.10156 7.1958 2.10156 8.3208C2.10156 9.48096 1.99609 11.9419 2.41797 12.9614C2.69922 13.6646 3.22656 14.1919 3.92969 14.4731C4.94922 14.895 7.41016 14.7896 8.57031 14.7896C9.69531 14.7896 12.1562 14.895 13.2109 14.4731C13.8789 14.1919 14.4414 13.6646 14.6875 12.9614Z" fill="#C0C0C0"/>
</svg>
