<svg width="62" height="62" viewBox="0 0 62 62" fill="none" xmlns="http://www.w3.org/2000/svg">
<path d="M48.2039 20.8662C47.8548 25.7117 44.2604 29.4443 40.3406 29.4443C36.4209 29.4443 32.8205 25.7129 32.4774 20.8662C32.1199 15.8254 35.6191 12.2881 40.3406 12.2881C45.0622 12.2881 48.5613 15.9171 48.2039 20.8662Z" stroke="#141414" stroke-width="3.4375" stroke-linecap="round" stroke-linejoin="round"/>
<path d="M40.3407 37.0693C32.5763 37.0693 25.1097 40.9259 23.2392 48.4365C22.9914 49.4302 23.6145 50.4131 24.6355 50.4131H56.047C57.068 50.4131 57.6875 49.4302 57.4433 48.4365C55.5728 40.8056 48.1062 37.0693 40.3407 37.0693Z" stroke="#141414" stroke-width="3.4375" stroke-miterlimit="10"/>
<path d="M24.1375 23.0036C23.8587 26.8733 20.9541 29.9209 17.8231 29.9209C14.6921 29.9209 11.7826 26.8745 11.5086 23.0036C11.2239 18.9778 14.0511 16.1006 17.8231 16.1006C21.5951 16.1006 24.4223 19.0517 24.1375 23.0036Z" stroke="#141414" stroke-width="3.4375" stroke-linecap="round" stroke-linejoin="round"/>
<path d="M24.8524 37.3076C22.7019 36.3224 20.3334 35.9435 17.8231 35.9435C11.6278 35.9435 5.65881 39.0233 4.16359 45.022C3.96701 45.8155 4.46502 46.6006 5.27994 46.6006H18.657" stroke="#141414" stroke-width="3.4375" stroke-miterlimit="10" stroke-linecap="round"/>
</svg>
