<svg width="150" height="199" viewBox="0 0 150 199" fill="none" xmlns="http://www.w3.org/2000/svg">
<path d="M35.1576 24.6769C39.4835 23.1418 44.2313 23.3094 48.4382 25.1458C50.9079 25.1019 53.3605 25.5645 55.6445 26.505C57.9285 27.4455 59.9956 28.8441 61.7183 30.6144L128.514 97.797C132.419 83.7354 129.295 71.6271 119.139 61.4719L74.9979 11.396C71.5525 7.85553 67.4183 5.0586 62.8502 3.1777C58.2821 1.2968 53.3771 0.371819 48.4377 0.459843C43.4982 0.371948 38.5932 1.29708 34.0251 3.17816C29.457 5.05924 25.3228 7.85636 21.8775 11.397L12.1122 21.1622C4.56073 28.7109 0.784986 37.6292 0.784986 47.917C0.723209 52.8595 1.69948 57.76 3.65066 62.3015C5.60184 66.843 8.4845 70.9244 12.1122 74.2819L56.2502 118.419C66.1428 128.574 78.122 131.829 92.1877 128.184L25.0053 61.0019C23.235 59.2793 21.8364 57.2123 20.8959 54.9282C19.9553 52.6442 19.4927 50.1917 19.5367 47.722C19.4927 45.2523 19.9553 42.7998 20.8959 40.5158C21.8364 38.2318 23.235 36.1647 25.0053 34.4421L35.1576 24.6769ZM75.7798 187.164C79.2251 190.704 83.3594 193.501 87.9275 195.382C92.4955 197.263 97.4006 198.188 102.34 198.1C107.28 198.188 112.185 197.263 116.753 195.382C121.321 193.501 125.456 190.704 128.901 187.164L138.666 177.399C146.217 169.849 149.993 160.931 149.993 150.643C150.054 145.7 149.078 140.8 147.127 136.258C145.176 131.717 142.293 127.635 138.665 124.278L94.5285 80.1404C84.6352 69.9852 72.6557 66.7305 58.59 70.3762L125.776 137.558C127.547 139.28 128.945 141.347 129.886 143.631C130.826 145.915 131.289 148.368 131.245 150.838C131.289 153.307 130.826 155.76 129.886 158.044C128.945 160.328 127.547 162.395 125.776 164.118L115.62 173.883C113.897 175.653 111.83 177.052 109.546 177.992C107.262 178.933 104.81 179.395 102.34 179.351C99.8702 179.395 97.4177 178.933 95.1337 177.992C92.8496 177.052 90.7825 175.653 89.0599 173.883L22.2645 106.701C18.3608 120.763 21.4866 132.871 31.6419 143.026L75.7798 187.164Z" fill="white"/>
</svg>
