<svg width="21" height="21" viewBox="0 0 21 21" fill="none" xmlns="http://www.w3.org/2000/svg">
<path d="M10.986 0.756348C5.46305 0.756348 0.985962 5.23343 0.985962 10.7563C0.985962 16.2793 5.46305 20.7563 10.986 20.7563C16.5089 20.7563 20.986 16.2793 20.986 10.7563C20.986 5.23343 16.5089 0.756348 10.986 0.756348ZM8.53804 14.9011H6.51304V8.38447H8.53804V14.9011ZM7.51304 7.58447C6.87346 7.58447 6.45992 7.13135 6.45992 6.57093C6.45992 5.99906 6.88596 5.55947 7.53909 5.55947C8.19221 5.55947 8.59221 5.99906 8.60471 6.57093C8.60471 7.13135 8.19221 7.58447 7.51304 7.58447ZM15.9339 14.9011H13.9089V11.2897C13.9089 10.4491 13.6151 9.87822 12.8828 9.87822C12.3235 9.87822 11.9912 10.2647 11.8443 10.6366C11.7901 10.7688 11.7766 10.9563 11.7766 11.1428V14.9001H9.75055V10.4626C9.75055 9.64906 9.7245 8.96885 9.69742 8.38343H11.4568L11.5495 9.28864H11.5901C11.8568 8.86364 12.5099 8.23656 13.6026 8.23656C14.9349 8.23656 15.9339 9.12926 15.9339 11.048V14.9011Z" fill="#0C2742"/>
</svg>
