<svg width="16" height="17" viewBox="0 0 16 17" fill="none" xmlns="http://www.w3.org/2000/svg">
<path d="M14.7598 0.445801C15.3574 0.445801 15.8848 0.973145 15.8848 1.60596V15.0708C15.8848 15.7036 15.3574 16.1958 14.7598 16.1958H1.22461C0.626953 16.1958 0.134766 15.7036 0.134766 15.0708V1.60596C0.134766 0.973145 0.626953 0.445801 1.22461 0.445801H14.7598ZM4.88086 13.9458V6.45752H2.56055V13.9458H4.88086ZM3.7207 5.40283C4.45898 5.40283 5.05664 4.80518 5.05664 4.06689C5.05664 3.32861 4.45898 2.6958 3.7207 2.6958C2.94727 2.6958 2.34961 3.32861 2.34961 4.06689C2.34961 4.80518 2.94727 5.40283 3.7207 5.40283ZM13.6348 13.9458V9.83252C13.6348 7.82861 13.1777 6.24658 10.8223 6.24658C9.69727 6.24658 8.92383 6.87939 8.60742 7.47705H8.57227V6.45752H6.35742V13.9458H8.67773V10.2544C8.67773 9.27002 8.85352 8.3208 10.084 8.3208C11.2793 8.3208 11.2793 9.4458 11.2793 10.2896V13.9458H13.6348Z" fill="#C0C0C0"/>
</svg>
