<svg xmlns="http://www.w3.org/2000/svg" viewBox="0 0 259.73 163.24"><defs><style>.cls-1{fill:#939598;}.cls-2{fill:#fff;}.cls-3{fill:#919395;}</style></defs><g id="Layer_2" data-name="Layer 2"><g id="Layer_1-2" data-name="Layer 1"><g id="Group"><path id="Shape" class="cls-1" d="M94.69,50.74a16.52,16.52,0,0,1-4.2-2.1,15.17,15.17,0,0,1-4.4-4.7,16.8,16.8,0,0,1-2.3-9,15.68,15.68,0,0,1,2.5-7.9,4.64,4.64,0,0,0,.8-2.5,3.4,3.4,0,0,0-1.7-2.7c-.9-.5-1.8-.8-2.7-1.2-1.8-.8-3.5-1.5-5.3-2.3L69.89,15l-8.1-3.6c-2.7-1.2-5.4-2.4-8.2-3.6-.5-.2-1-.4-1.4-.6s-.4,0-.3.3c0,.1,0,.1.1.2.6,1.6,1.2,3.1,1.9,4.6a18.08,18.08,0,0,0,4.2,6,14.56,14.56,0,0,0,6.5,3.7c1.7.5,3.3,1,5,1.5s3.3,1,5,1.5c1.9.6,3.8,1.1,5.7,1.6.3.1.4.2.3.5a13.65,13.65,0,0,0-.7,2.9,25.72,25.72,0,0,0-.2,4.8,20.21,20.21,0,0,0,1.9,7.3,19.62,19.62,0,0,0,3,4.5,17.9,17.9,0,0,0,5.3,4.2,18.42,18.42,0,0,0,4.9,1.9c.3.1.4,0,.4-.3v-1.2C95.19,51,95,50.84,94.69,50.74Z"/><path class="cls-1" d="M54.79,28.94c2.8.4,5.5.9,8.3,1.3,2.2.3,4.3.7,6.5,1,2.4.4,4.7.7,7.1,1.1.3,0,.4,0,.4-.3,0-.5.1-1,.1-1.4.1-.6.2-1.2.3-1.7,0-.3-.1-.3-.2-.4-.8-.2-1.6-.5-2.4-.7-1.1-.3-2.3-.6-3.4-1-1.5-.4-3-.9-4.5-1.3l-3.3-.9c-1.5-.4-2.9-.9-4.4-1.3s-3.3-.9-4.9-1.4c-2.3-.7-4.5-1.3-6.8-2-1.6-.5-3.3-.9-4.9-1.4l-6.4-1.8c-.1,0-.2-.1-.3,0s0,.2.1.3c.6,1.1,1.2,2.2,1.8,3.2a17,17,0,0,0,5.3,5.7,11,11,0,0,0,4.3,1.8C49.89,28.24,52.39,28.54,54.79,28.94Z"/><path class="cls-1" d="M45.49,16.54c2.9.9,5.9,1.7,8.8,2.6a3.81,3.81,0,0,0,1,.3v-.2a13.5,13.5,0,0,1-2-2.7,25.43,25.43,0,0,1-1.6-2.8l-1.5-3.6a.78.78,0,0,0-.4-.4c-1.8-.7-3.5-1.5-5.3-2.3L39.09,5c-2.4-1-4.9-2.1-7.3-3.1-1.4-.6-2.7-1.2-4.1-1.8-.1-.1-.2-.2-.3-.1s0,.2,0,.4c.2.6.4,1.1.6,1.6a39.58,39.58,0,0,0,2.1,4.7,20.54,20.54,0,0,0,3.9,4.9,15,15,0,0,0,5.5,3.1Z"/><path class="cls-1" d="M74.89,37.94h2c.7,0,.6-.3.6-.3a29.09,29.09,0,0,1-.4-3.1c0-.3-.1-.4-.4-.4-1.8-.2-3.6-.5-5.5-.7-1.4-.2-2.7-.3-4.1-.5l-4.8-.6c-1.3-.2-2.7-.3-4-.5l-5-.6c-1.4-.2-2.9-.4-4.3-.5-1-.1-2-.2-3-.4-.1,0-.2-.1-.3,0a.35.35,0,0,0,.1.2c.4.5.8,1,1.2,1.6a15.44,15.44,0,0,0,5,4.5,11.12,11.12,0,0,0,5.1,1.4C63,38,68.89,37.94,74.89,37.94Z"/><path class="cls-1" d="M78.59,42.64c.2,0,.3-.1.2-.3a8.64,8.64,0,0,1-.7-2.1c-.1-.3-.2-.4-.5-.4-1,.1-1.9.1-2.9.2l-6.5.3c-1,.1-2,.1-3,.2l-6.1.3c-.8,0-1.6.1-2.3.1v.2a25.25,25.25,0,0,0,2.5,2.1,9.13,9.13,0,0,0,4.2,1.7,10.85,10.85,0,0,0,4-.3l4.9-.9C74.39,43.34,76.49,42.94,78.59,42.64Z"/><path class="cls-1" d="M81.19,46.64a19.92,19.92,0,0,1-1.2-1.9c-.1-.2-.2-.3-.5-.2l-1.2.3c-2.3.6-4.6,1.2-7,1.9a23.35,23.35,0,0,0-2.5.7c-.1,0-.2,0-.2.1s.1.1.2.2c.3.2.5.3.8.5a8,8,0,0,0,4.2,1.3,5.54,5.54,0,0,0,1.8-.2c1.9-.6,3.7-1.5,5.5-2.2C81.29,46.94,81.39,46.84,81.19,46.64Z"/><path class="cls-1" d="M84.39,50.24,83,48.84c-.2-.2-.3-.2-.5-.1-.8.4-1.7.7-2.5,1.1-.5.2-.9.5-1.5.7a7.93,7.93,0,0,1,.9.4,5.63,5.63,0,0,0,4.9-.3C84.49,50.44,84.49,50.44,84.39,50.24Z"/></g><path class="cls-2" d="M198.49,41.94a19.76,19.76,0,0,0-9.6-6.3c-3.1-1-8.7-1.6-16.8-1.6h-18.3v57.1a11.36,11.36,0,0,1-.6,4.5,3.92,3.92,0,0,1-1.8,1.8,11.61,11.61,0,0,1-4.6.6h-1.5v4.1h26.3V98h-2.3c-2.1,0-3.5-.2-4.1-.6a3.68,3.68,0,0,1-1.6-2,16.42,16.42,0,0,1-.4-4.9V73h12.4c7.1,0,12.3-.7,15.6-2.2a19.44,19.44,0,0,0,8.4-7.3,18.22,18.22,0,0,0,2.9-10.2A18.49,18.49,0,0,0,198.49,41.94Zm-8.6,19.6a11.81,11.81,0,0,1-5.3,4.9c-2.1.9-5.8,1.4-11.1,1.4H163V39.34h8.5c5.7,0,9.5.3,11.4.8a11.77,11.77,0,0,1,6.6,4.7,14.56,14.56,0,0,1,2.4,8.6A14.37,14.37,0,0,1,189.89,61.54Z"/><path class="cls-2" d="M150.29,34h-.2l-19.5,53.9-20-53.9H89.29v4.1h2.3a11.11,11.11,0,0,1,4.4.6,3.92,3.92,0,0,1,1.8,1.8c.4.8.5,2.4.5,4.9v44.4a15.37,15.37,0,0,1-.6,5.3,4.29,4.29,0,0,1-2.1,2.1,11.76,11.76,0,0,1-4.9.7h-1.4V102h23.8v-4.1h-1.5c-2.3,0-3.9-.2-4.8-.7a4.82,4.82,0,0,1-2-2,13.75,13.75,0,0,1-.6-5V42l22.2,60h4.8l19.1-52.6Z"/><path class="cls-2" d="M16.51,132.64v-1.1c.7-.1,1.2-.2,1.7-.3a9.47,9.47,0,0,0,1.7-.9h1v2.2a20.24,20.24,0,0,1,2.3-1.6,6.08,6.08,0,0,1,2.5-.6,4.53,4.53,0,0,1,1.6.3,3.46,3.46,0,0,1,1.2.7,3.6,3.6,0,0,1,.8,1.2,8.85,8.85,0,0,1,2.6-1.7,6.87,6.87,0,0,1,2.4-.5,3.94,3.94,0,0,1,2,.5,3,3,0,0,1,1.3,1.2,4.14,4.14,0,0,1,.4,2.1v7.3c0,.2.1.3.3.5a.55.55,0,0,0,.5.3,2.51,2.51,0,0,0,1,.1h.4v1.1h-6.6v-1.1a4.39,4.39,0,0,0,1.5-.2,1.21,1.21,0,0,0,.5-.5,3.71,3.71,0,0,0,.2-1.4v-5.9a4.39,4.39,0,0,0-.2-1.5,1.58,1.58,0,0,0-.7-.7,5.28,5.28,0,0,0-1.3-.1,5.34,5.34,0,0,0-2,.5,9.61,9.61,0,0,0-2.2,1.6v6.3a3.45,3.45,0,0,0,.1,1.2c.1.2.2.3.3.5a2.19,2.19,0,0,0,.5.3c.2,0,.6.1,1.3.1v1.1h-6.4v-1.1h.3a2.68,2.68,0,0,0,1.1-.2,1,1,0,0,0,.5-.6,3.81,3.81,0,0,0,.1-1.3v-5.7A5.94,5.94,0,0,0,27,133a1.58,1.58,0,0,0-.7-.7,2.13,2.13,0,0,0-1.2-.3,3.29,3.29,0,0,0-1.7.4A7.76,7.76,0,0,0,21,134v6.8a2,2,0,0,0,.2.9c.1.2.3.3.5.5a2.51,2.51,0,0,0,1,.2h.5v1.1h-6.7v-1.1h.4a3.45,3.45,0,0,0,1.2-.1.9.9,0,0,0,.6-.6,3.45,3.45,0,0,0,.1-1.2v-7.9Z"/><path class="cls-2" d="M47.41,130.34a6.71,6.71,0,0,1,3.3.8,5.17,5.17,0,0,1,2.2,2.4,8.06,8.06,0,0,1,0,7,6.62,6.62,0,0,1-2.3,2.4,7.42,7.42,0,0,1-3.4.8,6,6,0,0,1-4.8-2,7.06,7.06,0,0,1-1.6-4.7,7.84,7.84,0,0,1,.8-3.5,6.62,6.62,0,0,1,2.3-2.4A8.17,8.17,0,0,1,47.41,130.34Zm-.1,1.3a3.17,3.17,0,0,0-2.5,1.2,6.15,6.15,0,0,0-1.3,4.3,7.23,7.23,0,0,0,1.1,4.2,3.51,3.51,0,0,0,2.7,1.3,3.61,3.61,0,0,0,2-.6,3.53,3.53,0,0,0,1.4-1.9,9,9,0,0,0-.1-6.2,3.71,3.71,0,0,0-1.3-1.7A3.38,3.38,0,0,0,47.31,131.64Z"/><path class="cls-2" d="M54.81,132.64v-1.1c.6-.1,1.2-.2,1.7-.3a8.49,8.49,0,0,0,1.7-.8h1v2.5a6.74,6.74,0,0,1,2.2-1.9,4.59,4.59,0,0,1,2.2-.7,2.25,2.25,0,0,1,1.5.5,1.38,1.38,0,0,1,.6,1.1.91.91,0,0,1-.4.8,1.8,1.8,0,0,1-.9.4c-.2,0-.3,0-.4-.1a.91.91,0,0,1-.5-.3,2.77,2.77,0,0,0-1.2-.5,2.38,2.38,0,0,0-1.4.6,7.62,7.62,0,0,0-1.6,1.4v6.1a3.11,3.11,0,0,0,.1,1.1,1.2,1.2,0,0,0,.8.8,2.51,2.51,0,0,0,1,.1h.4v1.1h-6.8v-1.1h.6a3.11,3.11,0,0,0,1.1-.1,1,1,0,0,0,.5-.6,3.47,3.47,0,0,0,.2-1.3v-7.7Z"/><path class="cls-2" d="M76.31,131.74a3.54,3.54,0,0,1,1.2-1,2.61,2.61,0,0,1,1.1-.3,1.14,1.14,0,0,1,.8.3,1,1,0,0,1-.7,1.7,1.09,1.09,0,0,1-.5-.1,1.49,1.49,0,0,0-.6-.1,1.33,1.33,0,0,0-.7.3,3.78,3.78,0,0,1,.8,2.3,4.22,4.22,0,0,1-1.5,3.2,5.58,5.58,0,0,1-3.9,1.3,6.16,6.16,0,0,1-2.6-.6,6.22,6.22,0,0,0-1,.8,1.69,1.69,0,0,0-.2.5.55.55,0,0,0,.4.6,6.85,6.85,0,0,0,2,.6l3.8.6a11.7,11.7,0,0,1,2.5.7,3.17,3.17,0,0,1,1.8,1.2,2.79,2.79,0,0,1,.6,1.8,3.11,3.11,0,0,1-1.6,2.8c-1.4.9-3.4,1.3-6.1,1.3a10.62,10.62,0,0,1-3.4-.5,3.7,3.7,0,0,1-2-1.3,1.58,1.58,0,0,1-.5-1.2,3.32,3.32,0,0,1,.5-1.6,12.06,12.06,0,0,1,2.5-2.2,8.42,8.42,0,0,1-1.8-.7,1.55,1.55,0,0,1-.7-1.2,1.27,1.27,0,0,1,.1-.6,2.09,2.09,0,0,1,.4-.6,4.87,4.87,0,0,1,1-.8c.3-.2.5-.4.7-.5a6.4,6.4,0,0,1-1.4-1.5,4.14,4.14,0,0,1-.5-1.9,3.74,3.74,0,0,1,1.3-2.9,5.84,5.84,0,0,1,4.2-1.5,6.65,6.65,0,0,1,2.1.3A2.82,2.82,0,0,1,76.31,131.74Zm-6.1,11.4a8.88,8.88,0,0,0-1.7,1.8,2.42,2.42,0,0,0-.4,1.3,1.28,1.28,0,0,0,.4,1,3,3,0,0,0,1.4.8,9,9,0,0,0,2.5.3,9.72,9.72,0,0,0,3.1-.4,3.69,3.69,0,0,0,1.8-1,1.5,1.5,0,0,0,.4-1.1,1.22,1.22,0,0,0-.3-.9,2.21,2.21,0,0,0-1.3-.7,13.64,13.64,0,0,0-1.7-.4Zm2.1-11.5a2.94,2.94,0,0,0-2.2.9,3.17,3.17,0,0,0-.9,2.3,3.29,3.29,0,0,0,.4,1.7,4.26,4.26,0,0,0,1.1,1.2,2.93,2.93,0,0,0,1.6.4,3.17,3.17,0,0,0,1.6-.4,2.54,2.54,0,0,0,1.1-1.2,3.29,3.29,0,0,0,.4-1.7,3.24,3.24,0,0,0-.9-2.4A3.29,3.29,0,0,0,72.31,131.64Z"/><path class="cls-2" d="M89.41,135.84v-1.4a2.56,2.56,0,0,0-.8-2.1,3.71,3.71,0,0,0-2.3-.6,5.07,5.07,0,0,0-1.3.2,1.93,1.93,0,0,0-.9.5,1.79,1.79,0,0,0-.5.7,6.2,6.2,0,0,1-.3,1.1q-.3,1.2-1.2,1.2a.81.81,0,0,1-.8-.4,1.4,1.4,0,0,1-.3-.9,2.72,2.72,0,0,1,.6-1.7,4.46,4.46,0,0,1,2-1.4,7.45,7.45,0,0,1,3.1-.6,8.36,8.36,0,0,1,2.9.5,3.85,3.85,0,0,1,1.8,1.5,5.14,5.14,0,0,1,.4,2.5V140a4.55,4.55,0,0,0,.1,1.4,1.93,1.93,0,0,0,.5.9,1.4,1.4,0,0,0,.9.3,3.93,3.93,0,0,0,1.4-.3v1.2a7.47,7.47,0,0,1-2,.3,4.15,4.15,0,0,1-1.6-.3,2,2,0,0,1-1-.8,2.2,2.2,0,0,1-.5-1.2,16.5,16.5,0,0,1-2.9,1.8,7.51,7.51,0,0,1-2.6.5,4,4,0,0,1-2.9-1,2.83,2.83,0,0,1-1.1-2.3,2.6,2.6,0,0,1,.4-1.5,4,4,0,0,1,1.3-1.3,9,9,0,0,1,2.7-1A20.48,20.48,0,0,1,89.41,135.84Zm0,1.1c-2,.3-3.3.5-3.8.6a10.09,10.09,0,0,0-2.1.7,3.82,3.82,0,0,0-.9.9,1.69,1.69,0,0,0-.3,1,1.93,1.93,0,0,0,.3,1,3,3,0,0,0,.8.8,2.28,2.28,0,0,0,1.1.3,4.64,4.64,0,0,0,1.9-.4,18.2,18.2,0,0,0,2.8-1.6Z"/><path class="cls-2" d="M95.71,132.64v-1.1a6,6,0,0,0,1.8-.4,11.21,11.21,0,0,0,1.7-.8h.9v2.5a12.89,12.89,0,0,1,3-2,7,7,0,0,1,2.5-.5,3.81,3.81,0,0,1,1.9.4,4.49,4.49,0,0,1,1.3,1,3.69,3.69,0,0,1,.7,1.4,5.76,5.76,0,0,1,.1,1.5v5.8a3.09,3.09,0,0,0,.2,1.3,1,1,0,0,0,.5.4,5.79,5.79,0,0,0,1.6.1v1.1h-6.8v-1.1h.4a3.47,3.47,0,0,0,1.3-.2,1.21,1.21,0,0,0,.5-.5,3.71,3.71,0,0,0,.2-1.4v-4.9a9.1,9.1,0,0,0-.2-2.1,1.76,1.76,0,0,0-.8-.9c-.6,0-1.1-.2-1.7-.2a5.25,5.25,0,0,0-2.3.6,8.68,8.68,0,0,0-2.3,1.6v6.1a3.71,3.71,0,0,0,.2,1.4,1.21,1.21,0,0,0,.5.5,3.81,3.81,0,0,0,1.3.1h.3v1.1h-6.8v-1.1H96a3.09,3.09,0,0,0,1.3-.2,1,1,0,0,0,.5-.6,4.2,4.2,0,0,0,.1-1.5v-7.4Z"/><path class="cls-2" d="M122,132.64v-1.1a7.93,7.93,0,0,0,1.7-.2,9.47,9.47,0,0,0,1.7-.9h1v2.2a12.41,12.41,0,0,1,2.7-1.8,5.85,5.85,0,0,1,2.2-.5,4.78,4.78,0,0,1,3.8,1.8,6.46,6.46,0,0,1,1.6,4.6,7.65,7.65,0,0,1-1.8,5.2,5.53,5.53,0,0,1-4.2,1.9,6,6,0,0,1-2.4-.5,7.2,7.2,0,0,1-1.9-1.2v4.4a3.14,3.14,0,0,0,.1,1.2c0,.2.1.3.3.4a.76.76,0,0,0,.5.2h1.5v1.1H122v-1.1h.6a3.45,3.45,0,0,0,1.2-.1.78.78,0,0,0,.4-.4,4.18,4.18,0,0,0,.1-1.4v-13.8Zm4.4,1.3v4.6a4.51,4.51,0,0,0,.1,1.3,2.28,2.28,0,0,0,.6,1.2,2.73,2.73,0,0,0,1.2.9,3.17,3.17,0,0,0,1.6.4,4.1,4.1,0,0,0,3-1.3,5.71,5.71,0,0,0,1.3-3.9,6.13,6.13,0,0,0-1-3.8,3,3,0,0,0-2.4-1.3,5.34,5.34,0,0,0-2,.5A12.32,12.32,0,0,0,126.41,133.94Z"/><path class="cls-2" d="M137.81,132.64v-1.1c.6-.1,1.2-.2,1.7-.3a8.49,8.49,0,0,0,1.7-.8h1v2.5a5.48,5.48,0,0,1,2.2-1.8,4.3,4.3,0,0,1,2.2-.7,2.25,2.25,0,0,1,1.5.5,1.38,1.38,0,0,1,.6,1.1.91.91,0,0,1-.4.8,1.49,1.49,0,0,1-.9.4c-.2,0-.3,0-.4-.1a.91.91,0,0,1-.5-.3,2.77,2.77,0,0,0-1.2-.5,2.38,2.38,0,0,0-1.4.6,7.62,7.62,0,0,0-1.6,1.4v6.1a3.11,3.11,0,0,0,.1,1.1,1.2,1.2,0,0,0,.8.8,2.51,2.51,0,0,0,1,.1h.4v1.1h-6.8v-1.1h.6a3.11,3.11,0,0,0,1.1-.1,1,1,0,0,0,.5-.6,3.47,3.47,0,0,0,.2-1.3v-7.8Z"/><path class="cls-2" d="M160.41,140l.8.7a7.87,7.87,0,0,1-1.9,1.8,4,4,0,0,1-1.7.9,5.41,5.41,0,0,1-1.9.3,6.71,6.71,0,0,1-3.3-.8,6.89,6.89,0,0,1-2.4-2.4,6.48,6.48,0,0,1-.8-3.5,8,8,0,0,1,.8-3.6,5.44,5.44,0,0,1,2.2-2.3,6.29,6.29,0,0,1,3.3-.9,5.75,5.75,0,0,1,2.4.4,4.63,4.63,0,0,1,1.8,1.3,7.81,7.81,0,0,1,1.1,2,7.93,7.93,0,0,1,.2,1.7h-9.3v1a7.31,7.31,0,0,0,.6,3,4.24,4.24,0,0,0,1.5,1.9,4,4,0,0,0,2.2.6,4.92,4.92,0,0,0,2-.5C158.71,141.64,159.41,141,160.41,140Zm-1.7-5.3a3.8,3.8,0,0,0-.6-1.8,2.19,2.19,0,0,0-1-.9,3.34,3.34,0,0,0-1.5-.3,2.88,2.88,0,0,0-1.6.3,2.34,2.34,0,0,0-1.2,1,5.07,5.07,0,0,0-.8,1.8h6.7Z"/><path class="cls-2" d="M171.31,130.74h.9l1.2,4.1-1.2.4a6.5,6.5,0,0,0-2-2.6,4.54,4.54,0,0,0-2.6-.9,2.54,2.54,0,0,0-1.6.5,1.38,1.38,0,0,0-.6,1.1,1.23,1.23,0,0,0,.5,1,7.12,7.12,0,0,0,2,1l2.6.9a8.16,8.16,0,0,1,3,1.7,3.18,3.18,0,0,1,.8,2,3.53,3.53,0,0,1-.6,1.9,3.41,3.41,0,0,1-1.7,1.4,5.1,5.1,0,0,1-2.5.5,5.66,5.66,0,0,1-3.8-1.3l-.3,1h-.9l-1.6-4.3,1.2-.5a9.37,9.37,0,0,0,2.3,2.7,5,5,0,0,0,3.2,1.1,2.88,2.88,0,0,0,1.9-.6,1.75,1.75,0,0,0,.7-1.4,1.61,1.61,0,0,0-.5-1.1,4.73,4.73,0,0,0-1.8-1l-3-1.1a6.59,6.59,0,0,1-2.7-1.6,3,3,0,0,1-.8-2,3.13,3.13,0,0,1,1.2-2.4,4.72,4.72,0,0,1,3.2-1,4.84,4.84,0,0,1,1.8.3,8.94,8.94,0,0,1,1.6.9Z"/><path class="cls-2" d="M178.61,126.24h.9v4.5h3.9V132h-3.9v8a4.87,4.87,0,0,0,.2,1.5,1.34,1.34,0,0,0,.6.7,1.69,1.69,0,0,0,1,.3,5.26,5.26,0,0,0,2.8-1.1v1.3a6.16,6.16,0,0,1-3.5,1.2,3.45,3.45,0,0,1-1.8-.5,2.89,2.89,0,0,1-1.1-1.1,5.15,5.15,0,0,1-.3-2.1V132h-2.3v-1.1a4.94,4.94,0,0,0,1.8-.8,3.81,3.81,0,0,0,1.1-1.4A18.53,18.53,0,0,0,178.61,126.24Z"/><path class="cls-2" d="M184.51,130.74h6.1v1.1h-.4a2.24,2.24,0,0,0-1,.1.55.55,0,0,0-.4.6,4.91,4.91,0,0,0,.3,1.2l2.7,7.3,2.7-6.7-.2-.6a4.89,4.89,0,0,0-.9-1.5,1.61,1.61,0,0,0-1.1-.3v-1.2h6v1.1h-.5c-.5,0-.8,0-.9.1a.84.84,0,0,0-.4.7,3,3,0,0,0,.3,1.1l2.7,7.3,2.7-7.4c.1-.4.2-.6.2-.7v-.3a.86.86,0,0,0-.3-.6,2.33,2.33,0,0,0-1.1-.2h-.5v-1.1h5.1v1.1a2,2,0,0,0-.9.2,2.65,2.65,0,0,0-.6.5l-.6,1.2-3.8,9.8h-1.6l-3-7.6-3,7.6h-1.6l-3.9-9.8a3.26,3.26,0,0,0-.6-1.2,2.65,2.65,0,0,0-.6-.5,2,2,0,0,0-.9-.2v-1.1Z"/><path class="cls-2" d="M206.71,132.64v-1.1a8,8,0,0,0,1.8-.4c.5-.2,1.1-.4,1.7-.7h1V141a1.29,1.29,0,0,0,.2.8l.4.4a2.51,2.51,0,0,0,1,.1h.6v1.1h-6.7v-1.1h.5a2.87,2.87,0,0,0,1.2-.2,1,1,0,0,0,.4-.5,4.55,4.55,0,0,0,.1-1.4v-7.6Zm3.3-8.2a1.56,1.56,0,0,1,1.1,2.6,1.46,1.46,0,0,1-2.2,0,1.5,1.5,0,0,1,1.1-2.6Z"/><path class="cls-2" d="M225.51,139.84l.8.7a7.14,7.14,0,0,1-5.9,3.3,5.83,5.83,0,0,1-4.5-1.9,6.9,6.9,0,0,1-1.9-4.8,7,7,0,0,1,.9-3.5,6.89,6.89,0,0,1,2.4-2.4,6.71,6.71,0,0,1,3.5-.8,6.56,6.56,0,0,1,3.8,1.1,2.94,2.94,0,0,1,1.5,2.3,1,1,0,0,1-.4.9,1.14,1.14,0,0,1-.8.3.9.9,0,0,1-.5-.1c-.1-.1-.3-.2-.5-.4a3.22,3.22,0,0,1-.4-.7,2.14,2.14,0,0,0-.6-1,2.54,2.54,0,0,0-1-.8,2.77,2.77,0,0,0-1.3-.3,4.2,4.2,0,0,0-2.1.6,4.53,4.53,0,0,0-1.5,1.8,6.53,6.53,0,0,0-.6,2.9,6.44,6.44,0,0,0,1.4,4.2,3.6,3.6,0,0,0,2.9,1.3,4,4,0,0,0,1.5-.3,5.48,5.48,0,0,0,1.5-.8A7.52,7.52,0,0,0,225.51,139.84Z"/><path class="cls-2" d="M227.11,126.34v-1.2a8.78,8.78,0,0,0,2-.4,10.09,10.09,0,0,0,1.5-.7h1v8.8a10.08,10.08,0,0,1,2.8-1.8,6.08,6.08,0,0,1,2.5-.6,4.17,4.17,0,0,1,2.9,1.1,3.27,3.27,0,0,1,1.1,2.6v6.5a3.47,3.47,0,0,0,.2,1.3,1,1,0,0,0,.5.4,5.79,5.79,0,0,0,1.6.1v1.1h-6.8v-1.1h.5a3.47,3.47,0,0,0,1.3-.2,1,1,0,0,0,.4-.5,5,5,0,0,0,.1-1.5v-4.5a9.27,9.27,0,0,0-.1-2,2,2,0,0,0-.8-1.2,2.54,2.54,0,0,0-1.6-.5,6.82,6.82,0,0,0-2.3.5,11.14,11.14,0,0,0-2.4,1.6v6.7a2.51,2.51,0,0,0,.1,1,.78.78,0,0,0,.4.4,3.45,3.45,0,0,0,1.2.1h.5v1.1h-6.8v-1.1h.4a4.64,4.64,0,0,0,1.4-.2.46.46,0,0,0,.3-.5,7.7,7.7,0,0,0,.1-1.9v-13.4Z"/><path class="cls-3" d="M8,152.62h.55l.81,3.13-.68.27a5.44,5.44,0,0,0-1.5-2.17,3.23,3.23,0,0,0-1.9-.69,2.94,2.94,0,0,0-2.59,1.37,4.83,4.83,0,0,0-1.09,3.13A4.46,4.46,0,0,0,2.18,160a4.21,4.21,0,0,0,1.5,1.63,3.09,3.09,0,0,0,1.9.55,4.19,4.19,0,0,0,1.23-.27,6.14,6.14,0,0,0,1-.55c.14-.13.27-.41.41-.54s.13-.55.13-.82v-.54c0-.41,0-.68-.13-.82l-.41-.41a5.09,5.09,0,0,0-1.09-.14v-.68h4.08v.68h-.27c-.27,0-.54,0-.54.14s-.14.14-.28.27a6.42,6.42,0,0,0-.13.68v3.54H8.85l-.41-.95a4.45,4.45,0,0,1-1.36.68,5.5,5.5,0,0,1-2,.41,5,5,0,0,1-3.54-1.5A5.31,5.31,0,0,1,0,157.52a5.55,5.55,0,0,1,1.5-3.81A5,5,0,0,1,5,152.21a2.92,2.92,0,0,1,1.09.14c.27.13.68.13,1,.27s.41.27.68.41Z"/><path class="cls-3" d="M11.57,156.7v-.54c.41,0,.68-.14.95-.14a8.62,8.62,0,0,1,1-.41H14V157a3.83,3.83,0,0,1,1.23-1,2.18,2.18,0,0,1,1.22-.41,1.15,1.15,0,0,1,.82.28c.27.13.27.41.27.68s-.14.27-.27.41-.27.13-.55.13h-.27a.46.46,0,0,0-.27-.13,2.3,2.3,0,0,0-.68-.28,1.91,1.91,0,0,0-.82.28,2.33,2.33,0,0,0-.82.81v4c0,.14.14.14.14.27s.14.14.27.14h.82v.68H11.3v-.68h.27c.27,0,.55,0,.55-.14s.27-.13.27-.27a6.42,6.42,0,0,0,.13-.68V156.7Z"/><path class="cls-3" d="M24.23,160.92l.41.41c-.41.41-.68.82-1.09.95a3.33,3.33,0,0,1-.95.55c-.14.14-.55.14-1,.14a3.43,3.43,0,0,1-1.77-.41,4.52,4.52,0,0,1-1.36-1.36,4.42,4.42,0,0,1-.41-1.91,4.54,4.54,0,0,1,.41-2,3.86,3.86,0,0,1,1.23-1.36,3.85,3.85,0,0,1,1.9-.41,4,4,0,0,1,1.37.27,2.54,2.54,0,0,1,.95.68,2.66,2.66,0,0,1,.54,1.09,2,2,0,0,1,.14.95H19.47V159a5,5,0,0,0,.27,1.63,3.66,3.66,0,0,0,.81,1.09,2.23,2.23,0,0,0,1.23.41,2.65,2.65,0,0,0,1.09-.27A3.52,3.52,0,0,0,24.23,160.92Zm-.95-3c-.14-.41-.14-.82-.27-1a1.09,1.09,0,0,0-.55-.55,1.79,1.79,0,0,0-.82-.13,1.77,1.77,0,0,0-.81.13,1.29,1.29,0,0,0-.68.55,5.49,5.49,0,0,0-.41,1Z"/><path class="cls-3" d="M31,158.61v-.82a1.45,1.45,0,0,0-1.64-1.63,1,1,0,0,0-.68.14.68.68,0,0,0-.54.27c-.14.13-.27.27-.27.41a1.6,1.6,0,0,0-.14.68c-.14.4-.27.68-.68.68-.14,0-.41,0-.41-.14s-.14-.27-.14-.54a1.5,1.5,0,0,1,.41-1,3.94,3.94,0,0,1,1.09-.81,6.77,6.77,0,0,1,1.77-.28,4.89,4.89,0,0,1,1.63.28,1.45,1.45,0,0,1,1,.81,3,3,0,0,1,.27,1.36v3.68c0,.27.14.41.27.41s.27.13.55.13a1.77,1.77,0,0,0,.81-.13v.68a3.25,3.25,0,0,1-1.09.14c-.4,0-.68,0-.81-.14a2,2,0,0,1-.55-.41,1.08,1.08,0,0,1-.27-.68,4.93,4.93,0,0,1-1.63.95,4.82,4.82,0,0,1-1.5.28,2.16,2.16,0,0,1-1.63-.55,1.89,1.89,0,0,1-.68-1.22,1.85,1.85,0,0,1,.27-.82,1.59,1.59,0,0,1,.68-.68,3.2,3.2,0,0,1,1.5-.55A4.25,4.25,0,0,1,31,158.61Zm0,.54a9,9,0,0,0-2.05.41,2.9,2.9,0,0,0-1.08.41,1.86,1.86,0,0,0-.55.41.85.85,0,0,0-.13.54.86.86,0,0,0,.13.55l.41.41a1.07,1.07,0,0,0,.68.13,4.08,4.08,0,0,0,1.09-.27,4,4,0,0,0,1.5-1Z"/><path class="cls-3" d="M35.94,153.16h.54v2.45h2.18v.69H36.48v4.35c0,.41,0,.68.14.82s.13.27.27.41.27.13.54.13a2.84,2.84,0,0,0,1.5-.68V162a3.58,3.58,0,0,1-1.9.68,2,2,0,0,1-1-.27,3.43,3.43,0,0,1-.68-.54,3.19,3.19,0,0,1-.13-1.23v-4.49H34v-.68a6.39,6.39,0,0,0,.95-.41c.28-.14.41-.41.68-.82A4.12,4.12,0,0,0,35.94,153.16Z"/><path class="cls-3" d="M51.59,152.62h.55l.81,3.13-.68.27a4.36,4.36,0,0,0-1.77-2,3.21,3.21,0,0,0-1.9-.68,2.65,2.65,0,0,0-1.09.27c-.41.14-.55.41-.82.55a.75.75,0,0,0-.41.68,1.2,1.2,0,0,0,.14.68A1,1,0,0,0,47,156c.28.14.68.28,1.36.55l1.91.54c.27.14.54.14,1.09.41a3,3,0,0,1,1.09.68A2.76,2.76,0,0,1,53,159a2.5,2.5,0,0,1,.27,1.09,3.05,3.05,0,0,1-1.08,2.17,4.37,4.37,0,0,1-2.73,1,5,5,0,0,1-1.49-.27,3.82,3.82,0,0,1-1.5-1l-.27,1H45.6l-.68-3.68.68-.14a7.47,7.47,0,0,0,.95,1.77A5.23,5.23,0,0,0,47.92,162a3.1,3.1,0,0,0,1.49.41,3.27,3.27,0,0,0,1.91-.68,1.89,1.89,0,0,0,.68-1.22,1.55,1.55,0,0,0-.41-1.09,5.14,5.14,0,0,0-1.77-.82l-1.77-.55A4.66,4.66,0,0,1,45.87,157a2.31,2.31,0,0,1-.68-1.64A2.65,2.65,0,0,1,45.6,154a2.9,2.9,0,0,1,1.23-.95,4.34,4.34,0,0,1,1.9-.41,7.2,7.2,0,0,1,1.64.27,2.19,2.19,0,0,1,1,.55Z"/><path class="cls-3" d="M60.85,160.79l.41.41A4.22,4.22,0,0,1,58,163.1,3.74,3.74,0,0,1,55.4,162a3.8,3.8,0,0,1-1.09-2.72,3.14,3.14,0,0,1,.55-1.91A4.41,4.41,0,0,1,56.22,156a4.36,4.36,0,0,1,1.91-.41,3.36,3.36,0,0,1,2,.69,1.62,1.62,0,0,1,.81,1.22c0,.27,0,.41-.13.54a.49.49,0,0,1-.41.14h-.27c-.14,0-.14-.14-.27-.27a1.79,1.79,0,0,1-.28-.41c-.13-.27-.27-.41-.27-.54s-.27-.41-.54-.41c-.14-.27-.28-.41-.55-.41a1.55,1.55,0,0,0-1.09.41,1.76,1.76,0,0,0-.81,1,2.87,2.87,0,0,0-.28,1.63,3.24,3.24,0,0,0,.82,2.32,1.84,1.84,0,0,0,1.63.68,1.68,1.68,0,0,0,.82-.14l.82-.41C60.17,161.47,60.44,161.2,60.85,160.79Z"/><path class="cls-3" d="M62.07,156.7v-.54c.41,0,.68-.14,1.09-.14a8.37,8.37,0,0,1,1-.41h.55v5.86c0,.27,0,.41.14.41s.13.13.27.27.27.13.54.13H66V163H62.21v-.69h.27a1.05,1.05,0,0,0,.68-.13c.14,0,.14-.14.27-.27a4.79,4.79,0,0,0,.14-.82V156.7ZM64,152.21a.71.71,0,0,1,.54.27,1,1,0,0,1,.28.55.69.69,0,0,1-.28.54,1,1,0,0,1-.54.28,1,1,0,0,1-.55-.28,1.06,1.06,0,0,1-.27-.54.95.95,0,0,1,.82-.82Z"/><path class="cls-3" d="M72.55,160.92l.41.41c-.41.41-.68.82-1.09.95a3.33,3.33,0,0,1-1,.55c-.13.14-.54.14-1,.14a3.43,3.43,0,0,1-1.77-.41,3.42,3.42,0,0,1-1.77-3.27,4.54,4.54,0,0,1,.41-2,3.83,3.83,0,0,1,1.22-1.36,3.89,3.89,0,0,1,1.91-.41,4,4,0,0,1,1.36.27,2.46,2.46,0,0,1,1,.68,2.8,2.8,0,0,1,.55,1.09,2.08,2.08,0,0,1,.13.95H67.79V159a5.25,5.25,0,0,0,.27,1.63,3.66,3.66,0,0,0,.82,1.09,2.23,2.23,0,0,0,1.22.41,2.65,2.65,0,0,0,1.09-.27A3.52,3.52,0,0,0,72.55,160.92Zm-1-3c-.13-.41-.13-.82-.27-1a1.07,1.07,0,0,0-.54-.55,1.83,1.83,0,0,0-.82-.13,1.81,1.81,0,0,0-.82.13,1.37,1.37,0,0,0-.68.55,6.39,6.39,0,0,0-.41,1Z"/><path class="cls-3" d="M73.78,156.7v-.54a7.19,7.19,0,0,0,1-.14,7.87,7.87,0,0,1,1-.41h.54V157a6.45,6.45,0,0,1,1.63-1.09,4.78,4.78,0,0,1,1.36-.28,2.58,2.58,0,0,1,1.09.14,2.68,2.68,0,0,1,.82.55l.41.81v4.09c0,.4,0,.68.14.68s.13.13.27.27a5,5,0,0,0,1,.13V163H79v-.69h.27c.41,0,.55,0,.69-.13a.3.3,0,0,0,.27-.27,6.42,6.42,0,0,0,.13-.68v-2.73a3.13,3.13,0,0,0-.13-1.22,2,2,0,0,0-.41-.55,1.81,1.81,0,0,0-.82-.13,3.83,3.83,0,0,0-1.22.27,6.19,6.19,0,0,0-1.36.95v3.41c0,.4,0,.68.13.81a.29.29,0,0,0,.27.27,2.84,2.84,0,0,0,.69.14h.13v.68H73.78v-.68h.14c.4,0,.54,0,.68-.14a.29.29,0,0,0,.27-.27v-5H73.78Z"/><path class="cls-3" d="M89.71,160.79l.4.41a4.19,4.19,0,0,1-3.26,1.9A3.72,3.72,0,0,1,84.26,162a3.8,3.8,0,0,1-1.09-2.72,3.14,3.14,0,0,1,.55-1.91A3.42,3.42,0,0,1,87,155.61a3.37,3.37,0,0,1,2,.69,1.62,1.62,0,0,1,.81,1.22c0,.27,0,.41-.13.54a.5.5,0,0,1-.41.14H89c-.14,0-.14-.14-.28-.27a2,2,0,0,1-.27-.41c-.13-.27-.27-.41-.27-.54s-.27-.41-.55-.41c0-.27-.27-.41-.54-.41a1.55,1.55,0,0,0-1.09.41,1.83,1.83,0,0,0-.82,1,3,3,0,0,0-.27,1.63,3.19,3.19,0,0,0,.82,2.32,1.84,1.84,0,0,0,1.63.68,1.7,1.7,0,0,0,.82-.14l.82-.41C89,161.47,89.3,161.2,89.71,160.79Z"/><path class="cls-3" d="M97.19,160.92l.41.41c-.41.41-.68.82-1.09.95a3.33,3.33,0,0,1-1,.55c-.14.14-.54.14-1,.14a3.43,3.43,0,0,1-1.77-.41,3.42,3.42,0,0,1-1.77-3.27,4.41,4.41,0,0,1,.41-2,3.83,3.83,0,0,1,1.22-1.36,3.89,3.89,0,0,1,1.91-.41,4,4,0,0,1,1.36.27,2.46,2.46,0,0,1,1,.68,2.8,2.8,0,0,1,.55,1.09,2.08,2.08,0,0,1,.13.95H92.43V159a5.25,5.25,0,0,0,.27,1.63,3.66,3.66,0,0,0,.82,1.09,2.2,2.2,0,0,0,1.22.41,2.65,2.65,0,0,0,1.09-.27A2.79,2.79,0,0,0,97.19,160.92Zm-1-3c-.14-.41-.14-.82-.27-1a1.06,1.06,0,0,0-.55-.55,1.77,1.77,0,0,0-.81-.13,1.79,1.79,0,0,0-.82.13,1.37,1.37,0,0,0-.68.55,6.39,6.39,0,0,0-.41,1Z"/><path class="cls-3" d="M108.08,153.3v-.68c.28,0,.68-.14,1-.14a9.26,9.26,0,0,1,1.09-.4h.54v9.52c0,.14.14.28.27.41a1,1,0,0,0,.68.14h.27v.68l-2.58.14v-1.23a6.08,6.08,0,0,1-1.36.95,3.91,3.91,0,0,1-1.23.28,2.87,2.87,0,0,1-2.18-1.09,4.23,4.23,0,0,1-.81-2.59,4.28,4.28,0,0,1,.41-1.91,3,3,0,0,1,1.22-1.36,3.67,3.67,0,0,1,1.63-.41,3.18,3.18,0,0,1,1.23.28,2.89,2.89,0,0,1,1.09.68V153.3Zm1.23,7.76v-2.72a2.09,2.09,0,0,0-.27-1c-.14-.27-.41-.4-.68-.68a2.73,2.73,0,0,0-1.09-.27,2.23,2.23,0,0,0-1.23.41,1.83,1.83,0,0,0-.82.95,5.32,5.32,0,0,0-.27,1.64,5,5,0,0,0,.27,1.49,1.47,1.47,0,0,0,.82,1,1.3,1.3,0,0,0,.95.27,4.4,4.4,0,0,0,1.09-.27A4.91,4.91,0,0,0,109.31,161.06Z"/><path class="cls-3" d="M118.7,160.92l.41.41c-.41.41-.68.82-1.09.95a3.33,3.33,0,0,1-1,.55A2.58,2.58,0,0,1,116,163a3.43,3.43,0,0,1-1.77-.41,3.42,3.42,0,0,1-1.77-3.27,4.54,4.54,0,0,1,.41-2,3.83,3.83,0,0,1,1.22-1.36,3.89,3.89,0,0,1,1.91-.41,4,4,0,0,1,1.36.27,2.46,2.46,0,0,1,1,.68,2.8,2.8,0,0,1,.55,1.09,2.08,2.08,0,0,1,.13.95H113.8V159a5.25,5.25,0,0,0,.27,1.63,3.84,3.84,0,0,0,.82,1.09,2.23,2.23,0,0,0,1.22.41,2.65,2.65,0,0,0,1.09-.27A3.06,3.06,0,0,0,118.7,160.92Zm-1-3c-.14-.41-.14-.82-.27-1a1.09,1.09,0,0,0-.55-.55,1.79,1.79,0,0,0-.82-.13,1.77,1.77,0,0,0-.81.13,1.33,1.33,0,0,0-.68.55,6.39,6.39,0,0,0-.41,1Z"/><path class="cls-3" d="M125,155.75h.55l.68,2.18-.68.27a3.68,3.68,0,0,0-1.09-1.36,2,2,0,0,0-1.5-.54,1.9,1.9,0,0,0-1,.27.75.75,0,0,0-.41.68.71.71,0,0,0,.27.54,2.66,2.66,0,0,0,1.09.55l1.36.54a3.12,3.12,0,0,1,1.64,1,1.58,1.58,0,0,1,.4,1.09,3.12,3.12,0,0,1-.27,1.09,5.73,5.73,0,0,1-1,.82,4,4,0,0,1-1.36.27,3.31,3.31,0,0,1-2-.68l-.14.55H121l-1-2.45.68-.28a4.8,4.8,0,0,0,1.23,1.5,2.85,2.85,0,0,0,1.77.68,1.57,1.57,0,0,0,1.09-.41,1.17,1.17,0,0,0,.41-.81c0-.28-.14-.41-.28-.68A2.81,2.81,0,0,0,124,160l-1.63-.68a4.67,4.67,0,0,1-1.5-.82,1.55,1.55,0,0,1-.41-1.09,1.89,1.89,0,0,1,.68-1.36,2.51,2.51,0,0,1,1.77-.54,2.08,2.08,0,0,1,1,.13l.82.41Z"/><path class="cls-3" d="M133.81,160.92l.41.41c-.41.41-.68.82-1.09.95a3.33,3.33,0,0,1-.95.55,2.58,2.58,0,0,1-1.09.14,3.43,3.43,0,0,1-1.77-.41,3.42,3.42,0,0,1-1.77-3.27,4.54,4.54,0,0,1,.41-2,3.83,3.83,0,0,1,1.22-1.36,3.89,3.89,0,0,1,1.91-.41,4,4,0,0,1,1.36.27,2.46,2.46,0,0,1,1,.68,2.8,2.8,0,0,1,.55,1.09,2.08,2.08,0,0,1,.13.95h-5.17V159a5.25,5.25,0,0,0,.27,1.63,3.66,3.66,0,0,0,.82,1.09,2.23,2.23,0,0,0,1.22.41,2.65,2.65,0,0,0,1.09-.27A3.06,3.06,0,0,0,133.81,160.92Zm-.95-3c-.14-.41-.14-.82-.27-1a1.09,1.09,0,0,0-.55-.55,1.79,1.79,0,0,0-.82-.13,1.77,1.77,0,0,0-.81.13,1.33,1.33,0,0,0-.68.55,6.39,6.39,0,0,0-.41,1Z"/><path class="cls-3" d="M135,156.7v-.54c.4,0,.68-.14,1-.14a7.65,7.65,0,0,1,.95-.41h.55V157a3.7,3.7,0,0,1,1.22-1,2.23,2.23,0,0,1,1.23-.41,1.1,1.1,0,0,1,.81.28c.28.13.28.41.28.68s-.14.27-.28.41-.27.13-.54.13h-.27a.5.5,0,0,0-.28-.13,2.2,2.2,0,0,0-.68-.28,1.87,1.87,0,0,0-.81.28,2.33,2.33,0,0,0-.82.81v4c0,.14.14.14.14.27s.13.14.27.14h.82v.68h-3.82v-.68H135c.27,0,.54,0,.54-.14s.27-.13.27-.27a6,6,0,0,0,.14-.68V156.7Z"/><path class="cls-3" d="M141.57,155.75H145v.68h-.81c-.14,0-.14.14-.28.14a.46.46,0,0,0-.13.27,1,1,0,0,0,.13.54l1.64,4.22,1.63-4.22a1,1,0,0,0,.14-.54c0-.14,0-.27-.14-.27s-.27-.14-.54-.14h-.41v-.68h2.86v.68a.82.82,0,0,0-.55.14.29.29,0,0,0-.27.27,6.9,6.9,0,0,0-.41.68L145.52,163h-.82l-2.31-5.59c-.14-.27-.28-.4-.28-.54l-.27-.27c-.13,0-.27-.14-.41-.14v-.68Z"/><path class="cls-3" d="M155.86,160.92l.41.41c-.41.41-.68.82-1.09.95a3.33,3.33,0,0,1-1,.55,2.58,2.58,0,0,1-1.09.14,3.43,3.43,0,0,1-1.77-.41A4.52,4.52,0,0,1,150,161.2a4.42,4.42,0,0,1-.41-1.91,4.54,4.54,0,0,1,.41-2,3.77,3.77,0,0,1,1.23-1.36,3.82,3.82,0,0,1,1.9-.41,3.91,3.91,0,0,1,1.36.27,2.46,2.46,0,0,1,.95.68,2.67,2.67,0,0,1,.55,1.09,2,2,0,0,1,.14.95h-5V159a5.25,5.25,0,0,0,.27,1.63,3.66,3.66,0,0,0,.82,1.09,2.2,2.2,0,0,0,1.22.41,2.65,2.65,0,0,0,1.09-.27A2.79,2.79,0,0,0,155.86,160.92Zm-.81-3c-.14-.41-.14-.82-.28-1a1,1,0,0,0-.54-.55,1.79,1.79,0,0,0-.82-.13,1.77,1.77,0,0,0-.81.13,1.29,1.29,0,0,0-.68.55,5.49,5.49,0,0,0-.41,1Z"/><path class="cls-3" d="M162.13,155.75h.54l.68,2.18-.68.27a3.68,3.68,0,0,0-1.09-1.36,2,2,0,0,0-1.5-.54,1.9,1.9,0,0,0-1,.27.75.75,0,0,0-.41.68.71.71,0,0,0,.27.54,2.66,2.66,0,0,0,1.09.55l1.36.54a3.08,3.08,0,0,1,1.64,1,1.59,1.59,0,0,1,.41,1.09,3.14,3.14,0,0,1-.28,1.09,5.73,5.73,0,0,1-1,.82,4,4,0,0,1-1.36.27,4.09,4.09,0,0,1-2.18-.68l-.13.55H158l-.95-2.45.68-.28a4.94,4.94,0,0,0,1.22,1.5,2.87,2.87,0,0,0,1.77.68,1.55,1.55,0,0,0,1.09-.41,1.14,1.14,0,0,0,.41-.81c0-.28-.13-.41-.27-.68a3,3,0,0,0-1-.55l-1.64-.68a4.6,4.6,0,0,1-1.49-.82,1.51,1.51,0,0,1-.41-1.09,1.89,1.89,0,0,1,.68-1.36,2.51,2.51,0,0,1,1.77-.54,2.08,2.08,0,0,1,1,.13l.82.41Z"/><path class="cls-3" d="M178.05,152.62h.55l.81,3.13-.68.27a5.44,5.44,0,0,0-1.5-2.17,3.23,3.23,0,0,0-1.9-.69,2.94,2.94,0,0,0-2.59,1.37,4.83,4.83,0,0,0-1.09,3.13,4.46,4.46,0,0,0,.55,2.31,4.29,4.29,0,0,0,1.5,1.63,3.09,3.09,0,0,0,1.9.55,4.19,4.19,0,0,0,1.23-.27,6.14,6.14,0,0,0,.95-.55c.14-.13.27-.41.41-.54s.13-.55.13-.82v-.54c0-.41,0-.68-.13-.82l-.41-.41a5.09,5.09,0,0,0-1.09-.14v-.68h4.08v.68h-.27c-.27,0-.54,0-.54.14s-.14.14-.27.27a6,6,0,0,0-.14.68v3.54h-.68l-.41-.95a4.45,4.45,0,0,1-1.36.68,5.5,5.5,0,0,1-2,.41,5,5,0,0,1-3.54-1.5,5.31,5.31,0,0,1-1.5-3.81,5.55,5.55,0,0,1,1.5-3.81,5,5,0,0,1,3.54-1.5,2.92,2.92,0,0,1,1.09.14c.27.13.68.13.95.27s.41.27.68.41Z"/><path class="cls-3" d="M181.45,156.7v-.54c.41,0,.69-.14,1-.14a7.65,7.65,0,0,1,1-.41h.55V157a3.7,3.7,0,0,1,1.22-1,2.23,2.23,0,0,1,1.23-.41,1.12,1.12,0,0,1,.81.28c.27.13.27.41.27.68s-.13.27-.27.41-.27.13-.54.13h-.27a.5.5,0,0,0-.28-.13,2.2,2.2,0,0,0-.68-.28,1.87,1.87,0,0,0-.81.28,2.33,2.33,0,0,0-.82.81v4c0,.14.14.14.14.27s.13.14.27.14H185v.68h-3.81v-.68h.27c.28,0,.55,0,.55-.14s.27-.13.27-.27a6,6,0,0,0,.14-.68V156.7Z"/><path class="cls-3" d="M194.25,160.92l.41.41c-.41.41-.68.82-1.09.95a3.33,3.33,0,0,1-.95.55,2.6,2.6,0,0,1-1.09.14,3.43,3.43,0,0,1-1.77-.41,4.41,4.41,0,0,1-1.36-1.36,4.28,4.28,0,0,1-.41-1.91,4.41,4.41,0,0,1,.41-2,3.83,3.83,0,0,1,1.22-1.36,3.89,3.89,0,0,1,1.91-.41,4,4,0,0,1,1.36.27,2.46,2.46,0,0,1,1,.68,2.8,2.8,0,0,1,.55,1.09,2.08,2.08,0,0,1,.13.95h-5.17V159a5.25,5.25,0,0,0,.27,1.63,3.66,3.66,0,0,0,.82,1.09,2.23,2.23,0,0,0,1.22.41,2.65,2.65,0,0,0,1.09-.27A3.06,3.06,0,0,0,194.25,160.92Zm-.95-3c-.14-.41-.14-.82-.27-1a1.09,1.09,0,0,0-.55-.55,1.79,1.79,0,0,0-.82-.13,1.77,1.77,0,0,0-.81.13,1.33,1.33,0,0,0-.68.55,5.49,5.49,0,0,0-.41,1Z"/><path class="cls-3" d="M200.92,158.61v-.82a1.45,1.45,0,0,0-1.63-1.63c-.28,0-.55,0-.68.14a.7.7,0,0,0-.55.27c-.13.13-.27.27-.27.41a1.6,1.6,0,0,0-.14.68c-.13.4-.27.68-.68.68-.13,0-.41,0-.41-.14s-.13-.27-.13-.54a1.45,1.45,0,0,1,.41-1,3.66,3.66,0,0,1,1.09-.81,6.63,6.63,0,0,1,1.77-.28,4.94,4.94,0,0,1,1.63.28,1.41,1.41,0,0,1,.95.81,2.91,2.91,0,0,1,.27,1.36v3.68c0,.27.14.41.28.41s.27.13.54.13a1.81,1.81,0,0,0,.82-.13v.68a3.31,3.31,0,0,1-1.09.14c-.41,0-.68,0-.82-.14a1.8,1.8,0,0,1-.54-.41,1,1,0,0,1-.27-.68,5,5,0,0,1-1.64.95,4.77,4.77,0,0,1-1.5.28,2.16,2.16,0,0,1-1.63-.55,1.89,1.89,0,0,1-.68-1.22,2,2,0,0,1,.27-.82,1.65,1.65,0,0,1,.68-.68,3.25,3.25,0,0,1,1.5-.55A5,5,0,0,1,200.92,158.61Zm0,.54a8.74,8.74,0,0,0-2,.41,3,3,0,0,0-1.09.41,1.8,1.8,0,0,0-.54.41.8.8,0,0,0-.14.54.82.82,0,0,0,.14.55l.4.41a1.07,1.07,0,0,0,.68.13,4,4,0,0,0,1.09-.27,3.89,3.89,0,0,0,1.5-1Z"/><path class="cls-3" d="M206,153.16h.54v2.45h2.18v.69H206.5v4.35c0,.41,0,.68.14.82s.13.27.27.41.27.13.54.13a2.84,2.84,0,0,0,1.5-.68V162a3.58,3.58,0,0,1-1.9.68,2,2,0,0,1-1-.27,3.43,3.43,0,0,1-.68-.54,3.19,3.19,0,0,1-.13-1.23v-4.49h-1.23v-.68a6.39,6.39,0,0,0,.95-.41c.28-.14.41-.41.69-.82A4.55,4.55,0,0,0,206,153.16Z"/><path class="cls-3" d="M214.81,152.21h.54l.14.41h6.26v-.41h.54l1.09,3-.68.27a3.05,3.05,0,0,0-1.09-1.63,2.86,2.86,0,0,0-1.63-.55h-.55a.13.13,0,0,0-.13.14v8.3a.46.46,0,0,0,.13.27c.14,0,.14.14.28.14h.81v.68h-3.94v-.68h.81c.14,0,.27-.14.41-.27s.14-.41.14-.82v-7.62a.14.14,0,0,0-.14-.14h-.41a2.79,2.79,0,0,0-1.22.27,4.36,4.36,0,0,0-1,.68,3.76,3.76,0,0,0-.68,1.23l-.68-.27Z"/><path class="cls-3" d="M229.23,160.92l.41.41c-.41.41-.68.82-1.09.95a3.33,3.33,0,0,1-1,.55,2.58,2.58,0,0,1-1.09.14,3.43,3.43,0,0,1-1.77-.41,4.52,4.52,0,0,1-1.36-1.36,4.42,4.42,0,0,1-.41-1.91,4.54,4.54,0,0,1,.41-2,3.77,3.77,0,0,1,1.23-1.36,2.83,2.83,0,0,1,1.9-.41,3.86,3.86,0,0,1,1.36.27,2.58,2.58,0,0,1,1,.68,2.79,2.79,0,0,1,.54,1.09,2,2,0,0,1,.14.95h-5.18V159a4.94,4.94,0,0,0,.28,1.63,3.17,3.17,0,0,0,.81,1.09,2.23,2.23,0,0,0,1.23.41,2.65,2.65,0,0,0,1.09-.27A3.08,3.08,0,0,0,229.23,160.92Zm-.95-3c-.13-.41-.13-.82-.27-1a1.07,1.07,0,0,0-.54-.55,1.83,1.83,0,0,0-.82-.13,1.81,1.81,0,0,0-.82.13,1.37,1.37,0,0,0-.68.55,6.39,6.39,0,0,0-.41,1Z"/><path class="cls-3" d="M235.9,158.61v-.82a1.66,1.66,0,0,0-.4-1.22,1.69,1.69,0,0,0-1.23-.41,1,1,0,0,0-.68.14c-.14.13-.41.13-.54.27s-.28.27-.28.41a1.7,1.7,0,0,0-.13.68c-.14.4-.27.68-.68.68-.14,0-.41,0-.41-.14s-.14-.27-.14-.54a1.5,1.5,0,0,1,.41-1,3.79,3.79,0,0,1,1.09-.81,6.7,6.7,0,0,1,1.77-.28,4.94,4.94,0,0,1,1.63.28,1.45,1.45,0,0,1,1,.81,3,3,0,0,1,.27,1.36v3.68c0,.27.13.41.27.41s.27.13.55.13a1.77,1.77,0,0,0,.81-.13v.68a3.28,3.28,0,0,1-1.09.14c-.41,0-.68,0-.81-.14a1.86,1.86,0,0,1-.55-.41,1.08,1.08,0,0,1-.27-.68,5,5,0,0,1-1.63.95,4.82,4.82,0,0,1-1.5.28,2.18,2.18,0,0,1-1.64-.55,1.93,1.93,0,0,1-.68-1.22,1.87,1.87,0,0,1,.28-.82,1.54,1.54,0,0,1,.68-.68,3.16,3.16,0,0,1,1.49-.55A5.06,5.06,0,0,1,235.9,158.61Zm0,.54a9,9,0,0,0-2,.41,3.05,3.05,0,0,0-1.09.41,1.94,1.94,0,0,0-.54.41.8.8,0,0,0-.14.54.82.82,0,0,0,.14.55l.41.41a1.05,1.05,0,0,0,.68.13,4.08,4.08,0,0,0,1.09-.27,3.87,3.87,0,0,0,1.49-1Z"/><path class="cls-3" d="M239.58,156.84v-.68c.41,0,.68-.14.95-.14a8.62,8.62,0,0,1,1-.41H242v1.23c.54-.41.95-.68,1.36-1a3,3,0,0,1,1.36-.41,1.79,1.79,0,0,1,.82.13,3.56,3.56,0,0,1,.68.41,3.11,3.11,0,0,1,.41.68,6.55,6.55,0,0,1,1.36-.95,4,4,0,0,1,1.36-.27,2.5,2.5,0,0,1,1.09.27,1.71,1.71,0,0,1,.68.68,2.67,2.67,0,0,1,.27,1.23v4.08c0,.14.14.14.14.27s.14.14.27.14h.82v.68h-3.54v-.68c.41,0,.68,0,.82-.14a.29.29,0,0,0,.27-.27,6.42,6.42,0,0,0,.13-.68v-3.27c0-.41,0-.68-.13-.81l-.41-.41a1,1,0,0,0-.68-.14,3.35,3.35,0,0,0-1.09.27,5.32,5.32,0,0,0-1.23.82v4.22c0,.14.14.14.14.27s.14.14.27.14h.68v.68h-3.54v-.68h.28c.27,0,.54,0,.54-.14s.27-.13.27-.27a6,6,0,0,0,.14-.68v-3.13c0-.41,0-.82-.14-1l-.4-.41a1,1,0,0,0-.69-.14,2.62,2.62,0,0,0-1,.27,5.13,5.13,0,0,0-1.36,1v3.81c0,.27,0,.41.14.54s.13.14.27.27.27.14.54.14h.28v.68h-3.68v-.68h.14a1,1,0,0,0,.68-.14c.13-.13.27-.13.27-.4V157h-1.09Z"/><path class="cls-3" d="M258.37,155.75h.54l.68,2.18-.68.27a3.68,3.68,0,0,0-1.09-1.36,2,2,0,0,0-1.5-.54,1.93,1.93,0,0,0-.95.27.75.75,0,0,0-.41.68.71.71,0,0,0,.27.54,2.66,2.66,0,0,0,1.09.55l1.36.54a3.08,3.08,0,0,1,1.64,1,1.59,1.59,0,0,1,.41,1.09,3.14,3.14,0,0,1-.28,1.09,5.73,5.73,0,0,1-.95.82,4,4,0,0,1-1.36.27,4.09,4.09,0,0,1-2.18-.68l-.13.55h-.28l-1-2.45.68-.28a4.8,4.8,0,0,0,1.23,1.5,2.85,2.85,0,0,0,1.77.68,1.59,1.59,0,0,0,1.09-.41,1.16,1.16,0,0,0,.4-.81c0-.28-.13-.41-.27-.68a2.81,2.81,0,0,0-.95-.55l-1.63-.68a4.56,4.56,0,0,1-1.5-.82,1.55,1.55,0,0,1-.41-1.09,1.89,1.89,0,0,1,.68-1.36,2.51,2.51,0,0,1,1.77-.54,2.08,2.08,0,0,1,1,.13l.82.41Z"/></g></g></svg>