<svg width="24" height="25" viewBox="0 0 24 25" fill="none" xmlns="http://www.w3.org/2000/svg">
<path fill-rule="evenodd" clip-rule="evenodd" d="M1.25 5C1.25 4.58579 1.58579 4.25 2 4.25H22C22.4142 4.25 22.75 4.58579 22.75 5V20C22.75 20.4142 22.4142 20.75 22 20.75H2C1.58579 20.75 1.25 20.4142 1.25 20V5ZM2.75 5.75V19.25H21.25V5.75H2.75Z" fill="#1C1B1E"/>
<path fill-rule="evenodd" clip-rule="evenodd" d="M1.40004 4.55004C1.64857 4.21867 2.11867 4.15152 2.45004 4.40004L12 11.5625L21.55 4.40004C21.8814 4.15152 22.3515 4.21867 22.6 4.55004C22.8486 4.88142 22.7814 5.35152 22.45 5.60004L12.45 13.1C12.1834 13.3 11.8167 13.3 11.55 13.1L1.55004 5.60004C1.21867 5.35152 1.15152 4.88142 1.40004 4.55004Z" fill="#1C1B1E"/>
<path fill-rule="evenodd" clip-rule="evenodd" d="M1.25 5C1.25 4.58579 1.58579 4.25 2 4.25H12C12.4142 4.25 12.75 4.58579 12.75 5C12.75 5.41421 12.4142 5.75 12 5.75H2.75V12.5C2.75 12.9142 2.41421 13.25 2 13.25C1.58579 13.25 1.25 12.9142 1.25 12.5V5Z" fill="#1C1B1E"/>
<path fill-rule="evenodd" clip-rule="evenodd" d="M11.25 5C11.25 4.58579 11.5858 4.25 12 4.25H22C22.4142 4.25 22.75 4.58579 22.75 5V12.5C22.75 12.9142 22.4142 13.25 22 13.25C21.5858 13.25 21.25 12.9142 21.25 12.5V5.75H12C11.5858 5.75 11.25 5.41421 11.25 5Z" fill="#1C1B1E"/>
</svg>
