<svg width="56" height="56" viewBox="0 0 56 56" fill="none" xmlns="http://www.w3.org/2000/svg">
<path d="M50.3708 20.811C53.2354 17.9464 51.9292 14.6006 50.3708 12.9735L43.4958 6.09847C40.6083 3.23389 37.2854 4.54014 35.6583 6.09847L31.7625 10.0172H25.8271C21.4729 10.0172 18.9521 12.3089 17.6687 14.9443L7.49374 25.1193V34.286L5.86666 35.8901C3.00208 38.7776 4.30833 42.1006 5.86666 43.7276L12.7417 50.6026C13.9792 51.8401 15.3083 52.2985 16.5687 52.2985C18.1958 52.2985 19.6854 51.4964 20.5792 50.6026L26.7667 44.3922H34.9937C38.8896 44.3922 40.8604 41.9631 41.5708 39.5797C44.1604 38.8922 45.5812 36.9214 46.1542 34.9964C49.7062 34.0797 51.0354 30.711 51.0354 28.3506V21.4756H49.6833L50.3708 20.811ZM46.4521 28.3506C46.4521 29.3818 46.0167 30.6422 44.1604 30.6422H41.8687V32.9339C41.8687 33.9651 41.4333 35.2256 39.5771 35.2256H37.2854V37.5172C37.2854 38.5485 36.85 39.8089 34.9937 39.8089H24.8875L17.3708 47.3256C16.6604 47.9901 16.2479 47.6006 15.9958 47.3485L9.14374 40.5193C8.47916 39.8089 8.86874 39.3964 9.12083 39.1443L12.0771 36.1651V26.9985L16.6604 22.4151V26.0589C16.6604 28.8318 18.4937 32.9339 23.5354 32.9339C28.5771 32.9339 30.4104 28.8318 30.4104 26.0589H46.4521V28.3506ZM47.1167 17.5568L43.2208 21.4756H25.8271V26.0589C25.8271 27.0901 25.3917 28.3506 23.5354 28.3506C21.6792 28.3506 21.2437 27.0901 21.2437 26.0589V19.1839C21.2437 18.1297 21.6333 14.6006 25.8271 14.6006H33.6417L38.8667 9.37556C39.5771 8.71097 39.9896 9.10056 40.2417 9.35264L47.0937 16.1818C47.7583 16.8922 47.3687 17.3047 47.1167 17.5568Z" fill="black"/>
</svg>
