<svg width="55" height="56" viewBox="0 0 55 56" fill="none" xmlns="http://www.w3.org/2000/svg">
<path d="M29.4937 35.2923L23.6729 29.5402L23.7417 29.4715C27.6241 25.1565 30.5248 20.051 32.2437 14.5069H38.9583V9.92354H22.9167V5.34021H18.3333V9.92354H2.29166V14.5069H27.8896C26.3542 18.9069 23.925 23.1006 20.625 26.7673C18.4937 24.4069 16.7292 21.8173 15.3312 19.0902H10.7479C12.4208 22.8256 14.7125 26.3548 17.5771 29.5402L5.9125 41.0444L9.16666 44.2985L20.625 32.8402L27.7521 39.9673L29.4937 35.2923ZM42.3958 23.6735H37.8125L27.5 51.1735H32.0833L34.65 44.2985H45.5354L48.125 51.1735H52.7083L42.3958 23.6735ZM36.3917 39.7152L40.1042 29.7923L43.8167 39.7152H36.3917Z" fill="#151515"/>
</svg>
