<svg width="85" height="82" viewBox="0 0 85 82" fill="none" xmlns="http://www.w3.org/2000/svg">
<path d="M6.67073 37.5333H7.92473V45.1893H6.67073L2.89773 39.4803V45.1893H1.64373V37.5333H2.89773L6.67073 43.2313V37.5333ZM17.6455 37.5333V38.5563H14.6755V40.8003H17.3155V41.8233H14.6755V44.1663H17.6455V45.1893H13.4215V37.5333H17.6455ZM27.517 45.1893L25.79 42.4173L24.173 45.1893H22.776L25.152 41.3723L22.765 37.5443H24.173L25.911 40.3383L27.539 37.5443H28.936L26.549 41.3723L28.925 45.1893H27.517ZM33.7557 38.5673V37.5443H39.0907V38.5673H37.0557V45.1893H35.8017V38.5673H33.7557Z" fill="#6D6D6D"/>
<path d="M43.5812 1.02801L83.547 40.9862L43.5812 80.9445" stroke="#0C2742" stroke-width="0.974775"/>
</svg>
