<svg width="59" height="53" viewBox="0 0 59 53" fill="none" xmlns="http://www.w3.org/2000/svg">
<g clip-path="url(#clip0_0_410)">
<path d="M30.3687 26.1055H0.368744" stroke="#898989"/>
<path d="M36.3687 26.1055L30.3687 29.6055V22.6055L36.3687 26.1055Z" fill="#898989"/>
<path d="M32.3687 51.6055C46.1758 51.6055 57.3687 40.4126 57.3687 26.6055C57.3687 12.7984 46.1758 1.60547 32.3687 1.60547C18.5616 1.60547 7.36874 12.7984 7.36874 26.6055C7.36874 40.4126 18.5616 51.6055 32.3687 51.6055Z" stroke="#BEBEBD" stroke-miterlimit="10"/>
<path d="M32.3687 51.6055C46.1758 51.6055 57.3687 40.4126 57.3687 26.6055C57.3687 12.7984 46.1758 1.60547 32.3687 1.60547C18.5616 1.60547 7.36874 12.7984 7.36874 26.6055C7.36874 40.4126 18.5616 51.6055 32.3687 51.6055Z" stroke="#898989" stroke-miterlimit="10" stroke-dasharray="160 160"/>
</g>
<defs>
<clipPath id="clip0_0_410">
<rect width="58" height="52" fill="white" transform="translate(0.368744 0.605469)"/>
</clipPath>
</defs>
</svg>
