<svg width="64" height="58" viewBox="0 0 64 58" fill="none" xmlns="http://www.w3.org/2000/svg">
<g clip-path="url(#clip0_798_126)">
<path d="M15 41C15 38.79 13.21 37 11 37C8.79 37 7 38.79 7 41C7 43.21 8.79 45 11 45C13.21 45 15 43.21 15 41ZM11 43C9.9 43 9 42.1 9 41C9 39.9 9.9 39 11 39C12.1 39 13 39.9 13 41C13 42.1 12.1 43 11 43Z" fill="#0C2742"/>
<path d="M57 41C57 38.79 55.21 37 53 37C50.79 37 49 38.79 49 41C49 43.21 50.79 45 53 45C55.21 45 57 43.21 57 41ZM53 43C51.9 43 51 42.1 51 41C51 39.9 51.9 39 53 39C54.1 39 55 39.9 55 41C55 42.1 54.1 43 53 43Z" fill="#0C2742"/>
<path d="M53 45C48.93 45 45.56 48.06 45.07 52H44V47C44 42.04 39.96 38 35 38H29C24.04 38 20 42.04 20 47V52H18.93C18.44 48.06 15.07 45 11 45C6.93 45 3.56 48.06 3.07 52H2V54H62V52H60.93C60.44 48.06 57.07 45 53 45ZM5.09 52C5.57 49.17 8.03 47 11 47C13.97 47 16.43 49.17 16.91 52H5.09ZM32.59 40L32 40.59L31.41 40H32.58H32.59ZM38 52H26V46H38V52ZM42 52H40V45C40 44.45 39.55 44 39 44H25C24.45 44 24 44.45 24 45V52H22V47C22 43.27 24.93 40.23 28.61 40.02L31.3 42.71C31.5 42.91 31.75 43 32.01 43C32.27 43 32.52 42.9 32.72 42.71L35.41 40.02C39.09 40.23 42.02 43.27 42.02 47V52H42ZM47.09 52C47.57 49.17 50.03 47 53 47C55.97 47 58.43 49.17 58.91 52H47.09Z" fill="#0C2742"/>
<path d="M38 32C38 28.69 35.31 26 32 26C28.69 26 26 28.69 26 32C26 35.31 28.69 38 32 38C35.31 38 38 35.31 38 32ZM32 36C29.79 36 28 34.21 28 32C28 29.79 29.79 28 32 28C34.21 28 36 29.79 36 32C36 34.21 34.21 36 32 36Z" fill="#0C2742"/>
<path d="M32 50C32.5523 50 33 49.5523 33 49C33 48.4477 32.5523 48 32 48C31.4477 48 31 48.4477 31 49C31 49.5523 31.4477 50 32 50Z" fill="#0C2742"/>
<path d="M38.9504 15.26C38.8104 14.85 38.4304 14.58 38.0004 14.58H34.1504L32.9504 10.7C32.8204 10.28 32.4304 10 31.9904 10C31.5504 10 31.1604 10.29 31.0304 10.7L29.8304 14.58H25.9804C25.5504 14.58 25.1704 14.85 25.0304 15.26C24.8904 15.67 25.0304 16.11 25.3704 16.37L28.5204 18.78L27.3104 22.7C27.1804 23.12 27.3404 23.57 27.6904 23.82C28.0504 24.07 28.5204 24.06 28.8704 23.79L31.9704 21.42L35.0704 23.79C35.2504 23.93 35.4604 24 35.6804 24C35.8804 24 36.0804 23.94 36.2504 23.82C36.6104 23.57 36.7604 23.12 36.6304 22.7L35.4204 18.78L38.5704 16.37C38.9104 16.11 39.0504 15.66 38.9104 15.26H38.9504ZM33.3404 18.71L33.8304 20.3L32.6104 19.37C32.4304 19.23 32.2204 19.16 32.0004 19.16C31.7804 19.16 31.5704 19.23 31.3904 19.37L30.1704 20.3L30.6604 18.71C30.7804 18.31 30.6504 17.87 30.3104 17.62L28.9504 16.58H30.5804C31.0204 16.58 31.4104 16.29 31.5404 15.88L32.0004 14.39L32.4604 15.88C32.5904 16.3 32.9804 16.58 33.4204 16.58H35.0504L33.6904 17.62C33.3604 17.87 33.2204 18.31 33.3404 18.71Z" fill="#0C2742"/>
<path d="M23.9499 20.5C23.8099 20.09 23.4299 19.82 22.9999 19.82H19.9199L18.9599 16.7C18.8299 16.28 18.4399 16 17.9999 16C17.5599 16 17.1699 16.29 17.0399 16.7L16.0799 19.82H12.9999C12.5699 19.82 12.1899 20.09 12.0499 20.5C11.9099 20.91 12.0499 21.35 12.3899 21.61L14.9299 23.55L13.9599 26.7C13.8299 27.12 13.9899 27.57 14.3399 27.82C14.6999 28.07 15.1699 28.06 15.5199 27.79L17.9999 25.89L20.4799 27.79C20.6599 27.93 20.8699 28 21.0899 28C21.2899 28 21.4899 27.94 21.6599 27.82C22.0199 27.57 22.1699 27.12 22.0399 26.7L21.0699 23.55L23.6099 21.61C23.9499 21.35 24.0899 20.9 23.9499 20.5ZM19.3099 22.39C18.9799 22.64 18.8399 23.08 18.9599 23.48L19.2199 24.31L18.6199 23.85C18.4399 23.71 18.2299 23.64 18.0099 23.64C17.7899 23.64 17.5799 23.71 17.3999 23.85L16.7999 24.31L17.0599 23.48C17.1799 23.08 17.0499 22.64 16.7099 22.39L15.9699 21.82H16.8299C17.2699 21.82 17.6599 21.53 17.7899 21.12L18.0199 20.39L18.2499 21.12C18.3799 21.54 18.7699 21.82 19.2099 21.82H20.0699L19.3299 22.39H19.3099Z" fill="#0C2742"/>
<path d="M51.9499 20.5C51.8099 20.09 51.4299 19.82 50.9999 19.82H47.9199L46.9599 16.7C46.8299 16.28 46.4399 16 45.9999 16C45.5599 16 45.1699 16.29 45.0399 16.7L44.0799 19.82H40.9999C40.5699 19.82 40.1899 20.09 40.0499 20.5C39.9099 20.91 40.0499 21.35 40.3899 21.61L42.9299 23.55L41.9599 26.7C41.8299 27.12 41.9899 27.57 42.3399 27.82C42.6999 28.07 43.1699 28.06 43.5199 27.79L45.9999 25.89L48.4799 27.79C48.6599 27.93 48.8699 28 49.0899 28C49.2899 28 49.4899 27.94 49.6599 27.82C50.0199 27.57 50.1699 27.12 50.0399 26.7L49.0699 23.55L51.6099 21.61C51.9499 21.35 52.0899 20.9 51.9499 20.5ZM47.3099 22.39C46.9799 22.64 46.8399 23.08 46.9599 23.48L47.2199 24.31L46.6199 23.85C46.4399 23.71 46.2299 23.64 46.0099 23.64C45.7899 23.64 45.5799 23.71 45.3999 23.85L44.7999 24.31L45.0599 23.48C45.1799 23.08 45.0499 22.64 44.7099 22.39L43.9699 21.82H44.8299C45.2699 21.82 45.6599 21.53 45.7899 21.12L46.0199 20.39L46.2499 21.12C46.3799 21.54 46.7699 21.82 47.2099 21.82H48.0699L47.3299 22.39H47.3099Z" fill="#0C2742"/>
</g>
<defs>
<clipPath id="clip0_798_126">
<rect width="64" height="58" fill="white"/>
</clipPath>
</defs>
</svg>
