<svg width="64" height="67" viewBox="0 0 64 67" fill="none" xmlns="http://www.w3.org/2000/svg">
<g clip-path="url(#clip0_798_137)">
<path d="M52.0209 34.03H10.8709C10.6009 34.03 10.3809 34.25 10.3809 34.52V43.64C10.3809 43.91 10.6009 44.13 10.8709 44.13H13.2609V60.27C13.2609 62.33 14.9309 64 16.9909 64H46.6009C48.2709 64 49.6309 62.64 49.6309 60.97V44.13H52.0209C52.2909 44.13 52.5109 43.91 52.5109 43.64V34.52C52.5109 34.25 52.2909 34.03 52.0209 34.03ZM48.6409 60.97C48.6409 62.1 47.7209 63.02 46.5909 63.02H16.9909C15.4809 63.02 14.2509 61.79 14.2509 60.27V44.13H48.6509V60.97H48.6409ZM51.5309 43.15H11.3609V35.02H51.5309V43.15Z" fill="#0C2742"/>
<path d="M18.0509 59.56H44.8409C45.1109 59.56 45.3309 59.34 45.3309 59.07V48.07C45.3309 47.8 45.1109 47.58 44.8409 47.58H18.0509C17.7809 47.58 17.5609 47.8 17.5609 48.07V59.07C17.5509 59.34 17.7709 59.56 18.0509 59.56ZM18.5409 48.57H44.3509V58.58H18.5409V48.57Z" fill="#0C2742"/>
<path d="M18.0509 39.57H44.8409C45.1109 39.57 45.3309 39.35 45.3309 39.08C45.3309 38.81 45.1109 38.59 44.8409 38.59H18.0509C17.7809 38.59 17.5609 38.81 17.5609 39.08C17.5509 39.35 17.7709 39.57 18.0509 39.57Z" fill="#0C2742"/>
<path d="M53.1717 10.56C48.0217 10.2 44.9717 12.35 44.3117 16.78C44.1317 18.51 43.0417 20.26 40.8717 22.28C40.6017 22.53 40.4217 22.84 40.3417 23.19L40.1217 23.98L39.2717 23.62C39.2717 23.53 39.2817 23.45 39.2817 23.36C39.2817 22.59 39.1417 21.84 38.8917 21.15C40.8217 18.89 41.7017 16.65 41.5417 14.32C41.4617 13.16 40.7917 12.09 39.7917 11.53C37.1317 10.04 33.9117 10.52 30.2217 12.96C29.2917 13.57 28.7417 14.62 28.7417 15.76V18.56C28.7417 19.14 28.2717 19.61 27.6917 19.61C27.1117 19.61 26.6417 19.14 26.6417 18.56V15.7C26.6417 14.83 26.8317 13.96 27.2017 13.17L27.8717 11.72C27.9617 11.53 27.9217 11.3 27.7717 11.16C27.6217 11.01 27.3917 10.98 27.2117 11.08L22.5317 13.46C21.8917 13.79 21.1217 13.57 20.7417 12.97C20.5217 12.62 20.4717 12.2 20.6017 11.81C20.7317 11.42 21.0217 11.11 21.4017 10.96L24.5117 9.72002L24.8817 9.57001L29.3317 7.79002C29.5817 7.69002 29.7117 7.40002 29.6017 7.15002C29.5017 6.90002 29.2117 6.77002 28.9617 6.88002L25.1417 8.40001L24.4317 8.68002L24.1317 8.80002C23.6117 9.01002 23.0017 8.84002 22.6617 8.39002C22.4117 8.06002 22.3417 7.65002 22.4617 7.26002C22.5817 6.87002 22.8717 6.57002 23.2617 6.43002L26.5517 5.31002C26.7117 5.26002 26.8317 5.12002 26.8717 4.96002C26.9117 4.80002 26.8617 4.62002 26.7417 4.50002L25.3117 3.04001C25.2317 2.96001 25.2417 2.87001 25.2617 2.83001C25.2717 2.78001 25.3117 2.70002 25.4217 2.68002L30.6217 1.41002C31.5817 1.17002 32.5417 1.04002 33.4717 1.01002C37.3417 0.880015 40.0017 1.50002 42.1217 3.02002C42.2817 3.13002 42.4817 3.14001 42.6517 3.05001C44.9617 1.75002 48.3717 1.49002 53.0817 2.26002C53.3517 2.30002 53.6017 2.12002 53.6417 1.85002C53.6817 1.58002 53.5017 1.33002 53.2317 1.29002C48.4717 0.520015 44.9317 0.770015 42.4317 2.05001C39.5317 0.100015 36.1117 -0.0499849 33.4317 0.0400151C32.4317 0.0700151 31.4117 0.220015 30.3817 0.470015L25.1817 1.74002C24.7617 1.84002 24.4317 2.16001 24.3117 2.58001C24.1917 3.00001 24.3017 3.44002 24.6117 3.75002L25.4917 4.65002L22.9317 5.50002C22.2417 5.74002 21.7217 6.27002 21.5117 6.97002C21.3017 7.67002 21.4317 8.40002 21.8717 8.99002C22.0217 9.19002 22.2217 9.35002 22.4217 9.49002L21.0017 10.04C20.3517 10.3 19.8517 10.83 19.6317 11.5C19.4117 12.17 19.5017 12.89 19.8817 13.49C20.5317 14.53 21.8517 14.89 22.9517 14.34L26.3717 12.6L26.3017 12.76C25.8817 13.68 25.6517 14.7 25.6517 15.71V18.57C25.6517 19.44 26.2017 20.18 26.9717 20.47C26.5217 21.37 26.2817 22.35 26.2817 23.37C26.2817 26.96 29.2017 29.88 32.7917 29.88C35.9417 29.88 38.5817 27.63 39.1717 24.65L39.7417 24.9C39.8717 24.95 40.0017 24.98 40.1417 24.98C40.3017 24.98 40.4617 24.94 40.6017 24.87C40.8717 24.73 41.0617 24.48 41.1317 24.19L41.3017 23.43C41.3417 23.28 41.4217 23.13 41.5417 23.02C43.0217 21.64 45.0217 19.5 45.2917 16.92C45.8717 13.04 48.5017 11.23 53.1117 11.56C53.3717 11.57 53.6217 11.37 53.6417 11.1C53.6417 10.81 53.4417 10.58 53.1717 10.56ZM30.7617 13.78C34.1717 11.53 36.9717 11.07 39.3117 12.39C40.0217 12.79 40.5017 13.56 40.5617 14.39C40.6917 16.33 39.9917 18.23 38.4417 20.16C37.3217 18.19 35.2017 16.85 32.7817 16.85C31.6917 16.85 30.6517 17.12 29.7217 17.62V15.77C29.7117 14.96 30.1017 14.21 30.7617 13.78ZM32.7817 28.88C29.7317 28.88 27.2617 26.4 27.2617 23.36C27.2617 22.37 27.5317 21.41 28.0317 20.56C28.9117 20.41 29.6017 19.68 29.7017 18.78C30.6117 18.16 31.6717 17.83 32.7917 17.83C35.8417 17.83 38.3117 20.31 38.3117 23.35C38.3017 26.4 35.8217 28.88 32.7817 28.88Z" fill="#0C2742"/>
<path d="M32.7809 20.69C33.3809 20.69 33.8709 21.18 33.8709 21.78C33.8709 22.05 34.0909 22.27 34.3609 22.27C34.6309 22.27 34.8509 22.05 34.8509 21.78C34.8509 20.81 34.1809 20 33.2709 19.78V19.27C33.2709 19 33.0509 18.78 32.7809 18.78C32.5109 18.78 32.2909 19 32.2909 19.27V19.78C31.3909 20 30.7109 20.81 30.7109 21.78C30.7109 22.92 31.6409 23.85 32.7809 23.85C33.3809 23.85 33.8709 24.34 33.8709 24.94C33.8709 25.54 33.3809 26.03 32.7809 26.03C32.1809 26.03 31.6909 25.54 31.6909 24.94C31.6909 24.67 31.4709 24.45 31.2009 24.45C30.9309 24.45 30.7109 24.67 30.7109 24.94C30.7109 25.91 31.3809 26.72 32.2909 26.94V27.45C32.2909 27.72 32.5109 27.94 32.7809 27.94C33.0509 27.94 33.2709 27.72 33.2709 27.45V26.94C34.1709 26.72 34.8509 25.91 34.8509 24.94C34.8509 23.8 33.9209 22.87 32.7809 22.87C32.1809 22.87 31.6909 22.38 31.6909 21.78C31.6909 21.18 32.1809 20.69 32.7809 20.69Z" fill="#0C2742"/>
</g>
<defs>
<clipPath id="clip0_798_137">
<rect width="64" height="67" fill="white"/>
</clipPath>
</defs>
</svg>
