<svg width="53" height="54" viewBox="0 0 53 54" fill="none" xmlns="http://www.w3.org/2000/svg">
<g clip-path="url(#clip0_798_146)">
<path d="M8.90527 29.106C8.90625 29.3818 9.12988 29.6045 9.40527 29.6045H9.40674C9.68311 29.6035 9.90625 29.3794 9.90527 29.103L9.85986 13.5552C9.96109 13.614 13.449 15.6409 13.2313 15.5143L13.3183 46.1683L9.94629 44.2085L9.92236 35.7734C9.92139 35.498 9.69775 35.2749 9.42236 35.2749H9.4209C9.14502 35.2759 8.92139 35.5 8.92236 35.7764L8.94727 44.498C8.94775 44.6758 9.04248 44.8398 9.1958 44.9287L13.5586 47.4644C13.5638 47.4677 13.5659 47.4739 13.5713 47.4771C13.7234 47.5646 13.9143 47.5667 14.0708 47.4766L32.1485 37.0397L32.1458 37.7994C31.9848 37.8638 31.8228 37.9385 31.6597 38.0308C30.8687 38.4897 30.4336 39.1294 30.4346 39.832C30.4348 39.9681 30.3741 48.1434 30.3696 48.0425C30.3677 48.7515 30.8091 49.3975 31.6128 49.8623C33.0853 50.7115 35.3914 50.7165 36.8638 49.8613C37.6509 49.4048 38.0854 48.7666 38.0874 48.0669L38.1553 39.8687C38.1553 39.8665 38.1553 39.8642 38.1553 39.8619C38.1553 39.8587 38.1567 39.8557 38.1567 39.8525C38.1577 39.1509 37.7031 38.4868 36.9131 38.0317C36.733 37.9266 36.5467 37.8424 36.358 37.7687L36.3692 35.5919C40.692 32.9327 44.1559 26.8437 44.1416 21.8359C44.1343 19.276 43.2413 17.3497 41.6288 16.4019C41.6224 16.3978 41.619 16.3911 41.6123 16.3872L38.4888 14.5688C37.7314 14.1323 36.8631 13.949 35.9289 13.9929L35.9106 8.45825C35.9107 8.45575 35.9126 8.45374 35.9126 8.45117C35.9136 8.27344 35.8203 8.10889 35.6675 8.01807C34.7183 7.46069 39.1058 10.0372 26.3848 2.56689C26.23 2.47607 26.0386 2.47705 25.8838 2.56592L9.10742 12.2515C8.95112 12.342 8.85788 12.5085 8.85742 12.6841L8.85767 12.6851L8.85742 12.686L8.90527 29.106ZM35.3506 39.2134C35.3506 39.2607 35.2852 39.3462 35.1372 39.4321C34.6655 39.71 33.8374 39.709 33.3618 39.4312C33.1997 39.3364 33.1406 39.2432 33.1406 39.2051L33.1442 38.2285C33.1462 38.2155 33.1434 38.2022 33.1443 38.189L33.1492 36.8395C33.86 36.7382 34.6043 36.4988 35.3664 36.1365L35.3506 39.2134ZM37.0874 48.0615C37.0864 48.3887 36.8218 48.7295 36.3613 48.9966C35.2148 49.6626 33.269 49.6631 32.1128 48.9961C31.6396 48.7227 31.3687 48.376 31.3696 48.0479L31.4238 41.4878C32.9571 42.5592 35.6296 42.545 37.1416 41.5186L37.0874 48.0615ZM36.4111 38.8965C36.8827 39.1685 37.1532 39.5138 37.1556 39.8461L37.1553 39.8481V39.8589C37.1434 40.5811 36.0056 41.0595 35.1992 41.2014C33.9925 41.4125 32.883 41.1871 32.1802 40.7803C31.2367 40.2367 31.1577 39.489 32.1417 38.9093L32.1406 39.2031C32.1406 39.6318 32.4028 40.0303 32.8574 40.2944C33.641 40.7542 34.8651 40.7523 35.6416 40.2954C36.2583 39.937 36.3506 39.4639 36.3506 39.2158L36.3524 38.8714C36.3716 38.8821 36.392 38.8853 36.4111 38.8965ZM43.1416 21.8389C43.1553 26.6304 39.7739 32.4873 35.6035 34.8945C34.0695 35.7803 32.0885 36.3304 30.5531 35.4481C30.5482 35.4451 30.5456 35.4399 30.5405 35.437C29.2393 34.686 28.5186 33.061 28.5122 30.8628C28.499 26.37 31.4715 20.9374 35.2813 18.2878C36.9837 17.1056 39.3113 16.2251 41.0892 17.242C41.0919 17.2435 41.095 17.2446 41.0977 17.2461C42.4092 18.001 43.1353 19.6323 43.1416 21.8389ZM37.9878 15.4341L38.6592 15.8252C37.5824 15.9505 36.183 16.4434 34.7291 17.4548C30.6661 20.2767 27.4955 26.0698 27.5093 30.8643C27.5122 31.8696 27.7033 33.1072 28.0928 34.021L27.4136 33.6284C25.9011 32.7429 25.3884 30.7941 25.3833 29.0454C25.3691 24.2529 28.7524 18.3911 32.9233 15.9795C34.0864 15.313 35.1973 14.9761 36.1855 14.9761C36.8486 14.9761 37.457 15.1279 37.9878 15.4341ZM32.4243 15.1133C30.6368 16.1469 28.9907 17.7793 27.6552 19.6882L16.0308 26.4004C15.7915 26.5386 15.7095 26.8442 15.8477 27.0835C15.9862 27.3234 16.2928 27.4041 16.5308 27.2666L26.5341 21.4905C25.7283 22.9563 25.1067 24.5145 24.7459 26.0569L16.0308 31.0903C15.7915 31.2285 15.7095 31.5342 15.8477 31.7734C15.9862 32.0133 16.2928 32.094 16.5308 31.9565L24.5105 27.3478C24.4303 27.9235 24.3817 28.4934 24.3833 29.0483C24.3853 29.6953 24.4448 30.3014 24.5576 30.8625L16.0308 35.7803C15.7915 35.918 15.7095 36.2241 15.8477 36.4634C15.9844 36.6994 16.288 36.7858 16.5308 36.6465L24.8394 31.8546C25.2211 32.921 25.8406 33.7606 26.6716 34.3254L16.0308 40.4702C15.7915 40.6084 15.7095 40.9141 15.8477 41.1533C15.9862 41.3932 16.2928 41.4739 16.5308 41.3364L27.6458 34.9178C30.1646 36.34 30.0732 36.3966 30.821 36.6512L14.3193 46.1782L14.2327 15.5153C15.8507 14.5815 8.38235 18.8919 30.0107 6.40906C30.0109 6.50975 30.0212 11.5962 30.0205 11.2744C30.021 11.4526 30.1162 11.6177 30.271 11.7065C30.4253 11.7954 30.6152 11.7954 30.7705 11.7065L34.9136 9.3169L34.9293 14.1161C34.1248 14.2889 33.2829 14.6209 32.4243 15.1133ZM31.022 10.4058C31.0217 10.3057 31.0116 6.15757 31.0123 6.42084L34.4224 8.44238L31.022 10.4058ZM26.1328 3.57666L29.5107 5.53955C7.88288 18.0202 15.3424 13.7156 13.7286 14.6469C13.6274 14.588 10.1372 12.5595 10.355 12.686L26.1328 3.57666Z" fill="#0C2742"/>
<path d="M9.41797 34.0264C9.69434 34.0254 9.91748 33.8008 9.91651 33.5249L9.91016 31.3911C9.90918 31.1152 9.68555 30.8926 9.41016 30.8926H9.40869C9.13233 30.8936 8.90918 31.1182 8.91016 31.394L8.91651 33.5278C8.91748 33.8037 9.14112 34.0264 9.41651 34.0264H9.41797Z" fill="#0C2742"/>
<path d="M22.3108 14.5513L28.3601 11.0591C28.5993 10.9209 28.6814 10.6153 28.5432 10.376C28.404 10.1372 28.0979 10.0552 27.8601 10.1929L21.8108 13.6851C21.5715 13.8233 21.4895 14.1289 21.6277 14.3682C21.7672 14.609 22.0738 14.6882 22.3108 14.5513Z" fill="#0C2742"/>
<path d="M32.4167 12.2515L22.2951 18.0952C22.0559 18.2334 21.9739 18.5391 22.112 18.7783C22.2506 19.0182 22.5572 19.0989 22.7951 18.9615L32.9167 13.1177C33.156 12.9795 33.238 12.6739 33.0998 12.4346C32.9612 12.1949 32.654 12.1133 32.4167 12.2515Z" fill="#0C2742"/>
<path d="M36.2881 19.1352C32.7515 21.1787 29.7754 26.3345 29.7891 30.3926C29.7891 32.4951 30.6068 34.3921 32.7002 34.3921C33.4957 34.3921 34.4161 34.103 35.3614 33.5561C38.898 31.5166 41.8741 26.3638 41.8604 22.3037C41.8604 18.4809 39.3862 17.3416 36.2881 19.1352ZM36.7886 20.001C37.5171 19.5795 38.4723 19.2247 39.2986 19.3418C39.5038 19.9535 39.5376 20.6172 39.5376 20.9824V20.9839C39.5503 24.7295 36.8028 29.4844 33.5376 31.3677C32.5938 31.9132 31.7101 32.1582 31.0405 32.0395C30.8606 31.5067 30.7891 30.9383 30.7891 30.3911C30.7764 26.645 33.524 21.8872 36.7886 20.001ZM40.8604 22.3066C40.8731 26.0527 38.126 30.8076 34.8609 32.6904C34.0674 33.1494 33.3204 33.3921 32.7002 33.3921C32.2746 33.3921 31.9399 33.2703 31.6634 33.044C32.3918 32.9852 33.2026 32.7165 34.0381 32.2334C37.5748 30.1938 40.5513 25.0405 40.5376 20.9809C40.5376 20.8171 40.5257 20.592 40.5046 20.3477C40.8126 21.0215 40.8604 21.8586 40.8604 22.3052V22.3066Z" fill="#0C2742"/>
<path d="M18.4483 18.9253C17.0005 19.7617 15.8701 21.7202 15.875 23.3838L15.8755 23.6592C15.8763 23.937 16.1026 24.1582 16.3755 24.1582C16.4619 24.1582 16.5484 24.1357 16.6255 24.0913L21.2876 21.3994C21.4429 21.3096 21.5381 21.1435 21.5376 20.9643L21.5366 20.6899C21.5316 18.8217 20.0753 17.9872 18.4483 18.9253ZM16.94 22.7549C17.1719 21.5976 17.9966 20.3408 18.9483 19.7915C19.8749 19.2549 20.5272 19.5729 20.5366 20.6782L16.94 22.7549Z" fill="#0C2742"/>
<path d="M18.9443 18.2539C19.7564 17.7852 20.3897 16.689 20.3867 15.7583C20.3836 14.6124 19.4277 14.0686 18.437 14.6426C17.627 15.1103 16.9951 16.207 16.9981 17.1401C17.0011 18.2743 17.9475 18.8288 18.9443 18.2539ZM18.937 15.5088C19.2769 15.3128 19.3858 15.4108 19.3867 15.7612C19.3887 16.3369 18.9483 17.0972 18.4443 17.3877C18.1405 17.5644 17.999 17.5197 17.9981 17.1372C17.9961 16.5596 18.4351 15.7983 18.937 15.5088Z" fill="#0C2742"/>
</g>
<defs>
<clipPath id="clip0_798_146">
<rect width="53" height="54" fill="white"/>
</clipPath>
</defs>
</svg>
