<svg width="100" height="100" viewBox="0 0 100 100" fill="none" xmlns="http://www.w3.org/2000/svg">
<path d="M61.8709 68H59.1309C59.1309 65.5786 58.1689 63.2563 56.4567 61.5441C54.7445 59.8319 52.4223 58.87 50.0009 58.87C47.5794 58.87 45.2572 59.8319 43.545 61.5441C41.8328 63.2563 40.8709 65.5786 40.8709 68H38.1309C38.1309 64.8519 39.3814 61.8327 41.6075 59.6066C43.8336 57.3806 46.8527 56.13 50.0009 56.13C53.149 56.13 56.1682 57.3806 58.3942 59.6066C60.6203 61.8327 61.8709 64.8519 61.8709 68Z" fill="#0C2742"/>
<path d="M61.4909 46.5H62.3709C62.3709 43.2193 61.0676 40.0729 58.7478 37.7531C56.4279 35.4333 53.2816 34.13 50.0009 34.13C46.7201 34.13 43.5738 35.4333 41.2539 37.7531C38.9341 40.0729 37.6309 43.2193 37.6309 46.5H40.3709C40.3791 44.1144 41.2725 41.8168 42.878 40.0523C44.4835 38.2878 46.6868 37.182 49.061 36.9492C51.4352 36.7164 53.8113 37.3731 55.729 38.7921C57.6467 40.2111 58.9694 42.2915 59.4409 44.63C59.3762 44.7055 59.3223 44.7896 59.2809 44.88C59.1462 45.122 58.9924 45.3527 58.8209 45.57C58.5881 43.403 57.5664 41.3972 55.9505 39.9346C54.3346 38.4721 52.2372 37.6549 50.0577 37.6387C47.8783 37.6225 45.769 38.4083 44.1314 39.8467C42.4939 41.285 41.4426 43.2754 41.1775 45.4387C40.9125 47.6021 41.4524 49.7873 42.6943 51.5784C43.9362 53.3695 45.7935 54.6412 47.9124 55.1516C50.0313 55.6619 52.2639 55.3752 54.1851 54.3459C56.1063 53.3166 57.5819 51.6168 58.3309 49.57C59.6269 48.8305 60.7142 47.7742 61.4909 46.5ZM50.0009 52.63C48.7885 52.63 47.6033 52.2705 46.5952 51.5969C45.5871 50.9233 44.8014 49.966 44.3375 48.8459C43.8735 47.7257 43.7521 46.4932 43.9886 45.3041C44.2252 44.115 44.809 43.0227 45.6663 42.1654C46.5236 41.3081 47.6159 40.7243 48.805 40.4878C49.9941 40.2513 51.2266 40.3727 52.3467 40.8366C53.4668 41.3006 54.4242 42.0863 55.0978 43.0944C55.7713 44.1024 56.1309 45.2876 56.1309 46.5C56.1233 46.8865 56.0798 47.2715 56.0009 47.65C54.2205 48.4457 52.3222 48.9456 50.3809 49.13C50.0175 49.1433 49.6743 49.3003 49.4268 49.5666C49.1792 49.8329 49.0476 50.1867 49.0609 50.55C49.0741 50.9133 49.2312 51.2565 49.4975 51.5041C49.7638 51.7516 50.1175 51.8833 50.4809 51.87H50.5809C51.6504 51.7705 52.7103 51.5866 53.7509 51.32C52.6832 52.1649 51.3624 52.6263 50.0009 52.63Z" fill="#0C2742"/>
<path d="M51.6209 76.24V71.5C51.6209 71.1367 51.4765 70.7882 51.2196 70.5313C50.9627 70.2743 50.6142 70.13 50.2509 70.13C49.8875 70.13 49.5391 70.2743 49.2821 70.5313C49.0252 70.7882 48.8809 71.1367 48.8809 71.5V76.24C46.5401 76.586 44.4169 77.8047 42.9377 79.6515C41.4584 81.4983 40.7326 83.8363 40.9061 86.1962C41.0795 88.556 42.1394 90.7628 43.8727 92.3734C45.6061 93.9841 47.8847 94.8793 50.2509 94.8793C52.6171 94.8793 54.8956 93.9841 56.629 92.3734C58.3624 90.7628 59.4222 88.556 59.5957 86.1962C59.7691 83.8363 59.0433 81.4983 57.5641 79.6515C56.0848 77.8047 53.9616 76.586 51.6209 76.24ZM50.2509 92.13C48.9396 92.13 47.6577 91.7412 46.5674 91.0126C45.4771 90.2841 44.6274 89.2487 44.1256 88.0372C43.6237 86.8257 43.4924 85.4927 43.7483 84.2066C44.0041 82.9205 44.6355 81.7391 45.5628 80.8119C46.49 79.8847 47.6713 79.2532 48.9574 78.9974C50.2435 78.7416 51.5766 78.8729 52.7881 79.3747C53.9995 79.8765 55.035 80.7263 55.7635 81.8166C56.492 82.9069 56.8809 84.1887 56.8809 85.5C56.8782 87.2576 56.1789 88.9424 54.9361 90.1852C53.6933 91.428 52.0084 92.1274 50.2509 92.13Z" fill="#0C2742"/>
<path d="M59.1209 15.5C59.1226 13.7049 58.6087 11.9471 57.6403 10.4356C56.6718 8.92415 55.2896 7.7227 53.658 6.97416C52.0264 6.22563 50.2142 5.96153 48.4368 6.21327C46.6595 6.46501 44.9918 7.222 43.6323 8.39419C42.2728 9.56638 41.2785 11.1044 40.7679 12.8254C40.2573 14.5463 40.2518 16.3777 40.752 18.1017C41.2522 19.8257 42.2371 21.3697 43.5896 22.5501C44.942 23.7305 46.6051 24.4975 48.3809 24.76V29.5C48.3809 29.8633 48.5252 30.2118 48.7821 30.4687C49.039 30.7256 49.3875 30.87 49.7509 30.87C50.1142 30.87 50.4627 30.7256 50.7196 30.4687C50.9765 30.2118 51.1209 29.8633 51.1209 29.5V24.76C53.3419 24.4296 55.3708 23.3134 56.8388 21.6142C58.3068 19.915 59.1166 17.7455 59.1209 15.5ZM49.7509 22.13C48.4396 22.13 47.1577 21.7411 46.0674 21.0126C44.9771 20.2841 44.1273 19.2486 43.6255 18.0372C43.1237 16.8257 42.9924 15.4926 43.2483 14.2065C43.5041 12.9204 44.1355 11.7391 45.0627 10.8119C45.99 9.88464 47.1713 9.25319 48.4574 8.99737C49.7435 8.74155 51.0766 8.87285 52.288 9.37465C53.4995 9.87646 54.535 10.7262 55.2635 11.8165C55.992 12.9068 56.3809 14.1887 56.3809 15.5C56.3782 17.2575 55.6788 18.9424 54.4361 20.1852C53.1933 21.428 51.5084 22.1273 49.7509 22.13Z" fill="#0C2742"/>
<path d="M32.0004 39.68L27.8104 37.46C28.4611 35.5927 28.5016 33.5669 27.9261 31.675C27.3507 29.7831 26.189 28.123 24.6088 26.9342C23.0285 25.7454 21.1115 25.0895 19.1342 25.061C17.1569 25.0326 15.2218 25.6331 13.608 26.7759C11.9942 27.9187 10.7852 29.5447 10.1555 31.4192C9.52589 33.2937 9.5081 35.3199 10.1048 37.2052C10.7014 39.0905 11.8816 40.7374 13.4751 41.9084C15.0686 43.0794 16.9929 43.7138 18.9704 43.72C19.9095 43.7192 20.8432 43.5776 21.7404 43.3C23.6605 42.71 25.3376 41.5136 26.5204 39.89L30.7104 42.11C30.9093 42.2099 31.1279 42.2645 31.3504 42.27C31.6556 42.267 31.9513 42.163 32.191 41.974C32.4308 41.7851 32.6011 41.5221 32.6754 41.226C32.7497 40.9299 32.7238 40.6176 32.6016 40.3378C32.4795 40.0581 32.268 39.8268 32.0004 39.68ZM20.9304 40.68C20.0978 40.9381 19.2226 41.0296 18.3546 40.9494C17.4866 40.8692 16.643 40.6188 15.8718 40.2125C15.1006 39.8063 14.417 39.2521 13.86 38.5816C13.3029 37.9112 12.8834 37.1376 12.6254 36.305C12.3673 35.4724 12.2758 34.5972 12.356 33.7292C12.4362 32.8613 12.6866 32.0176 13.0929 31.2464C13.4991 30.4752 14.0533 29.7916 14.7238 29.2346C15.3942 28.6776 16.1678 28.2581 17.0004 28C17.8313 27.7398 18.7056 27.6474 19.5726 27.7281C20.4395 27.8088 21.2818 28.061 22.0504 28.47C22.826 28.8761 23.5134 29.432 24.0727 30.1055C24.6321 30.7791 25.0522 31.5569 25.3089 32.3939C25.5656 33.231 25.6537 34.1106 25.5682 34.9819C25.4826 35.8532 25.225 36.6989 24.8104 37.47C24.4022 38.2362 23.8467 38.9143 23.1757 39.4651C22.5047 40.016 21.7314 40.4289 20.9004 40.68H20.9304Z" fill="#0C2742"/>
<path d="M90.0007 63.9C89.4921 62.2397 88.5316 60.7536 87.2267 59.6079C85.9218 58.4623 84.3239 57.7022 82.6118 57.4127C80.8996 57.1231 79.1407 57.3156 77.5316 57.9686C75.9226 58.6215 74.5269 59.7092 73.5007 61.11L69.3107 58.89C69.1511 58.804 68.9762 58.7502 68.7959 58.7318C68.6156 58.7134 68.4334 58.7307 68.2597 58.7827C68.0861 58.8347 67.9244 58.9204 67.7838 59.0349C67.6433 59.1494 67.5267 59.2905 67.4407 59.45C67.3547 59.6096 67.3009 59.7845 67.2825 59.9648C67.2641 60.1452 67.2814 60.3273 67.3334 60.501C67.3854 60.6746 67.4711 60.8363 67.5856 60.9769C67.7001 61.1174 67.8411 61.234 68.0007 61.32L72.1907 63.54C71.696 64.9495 71.5457 66.4569 71.7526 67.9363C71.9595 69.4157 72.5175 70.8241 73.3799 72.0438C74.2423 73.2635 75.3841 74.2591 76.7099 74.9473C78.0356 75.6356 79.5069 75.9965 81.0007 76C82.4671 76.0036 83.9139 75.6634 85.225 75.0066C86.5361 74.3498 87.6749 73.3947 88.5501 72.2181C89.4252 71.0415 90.0123 69.6761 90.2643 68.2315C90.5162 66.7869 90.4259 65.3034 90.0007 63.9ZM86.9007 69.76C86.4926 70.5337 85.9357 71.2192 85.2618 71.777C84.588 72.3349 83.8106 72.7541 82.9743 73.0105C82.138 73.267 81.2593 73.3557 80.3886 73.2715C79.5179 73.1873 78.6724 72.9319 77.9007 72.52C77.1251 72.1139 76.4377 71.558 75.8783 70.8845C75.319 70.2109 74.8988 69.4331 74.6422 68.5961C74.3855 67.7591 74.2974 66.8794 74.3829 66.0081C74.4685 65.1368 74.7261 64.2911 75.1407 63.52C75.9758 61.9894 77.3802 60.8494 79.0498 60.3469C80.7194 59.8443 82.5198 60.0197 84.061 60.835C85.6022 61.6504 86.7602 63.04 87.2842 64.703C87.8083 66.3659 87.6561 68.1684 86.8607 69.72L86.9007 69.76Z" fill="#0C2742"/>
<path d="M33.2206 60.69C33.1289 60.5348 33.0074 60.3993 32.8632 60.2912C32.719 60.183 32.5549 60.1044 32.3802 60.0598C32.2056 60.0152 32.0239 60.0056 31.8455 60.0313C31.6671 60.0571 31.4955 60.1178 31.3406 60.21L27.2606 62.62C25.769 60.7932 23.6434 59.5962 21.308 59.2677C18.9726 58.9392 16.5992 59.5034 14.6615 60.8478C12.7238 62.1922 11.3644 64.2178 10.8545 66.5204C10.3446 68.823 10.7217 71.2332 11.9106 73.27C13.1186 75.2925 15.0441 76.7857 17.3036 77.4523C19.5631 78.1188 21.9908 77.9098 24.1031 76.8669C26.2154 75.824 27.8574 74.0237 28.702 71.8245C29.5466 69.6254 29.5318 67.1888 28.6606 65L32.7406 62.59C32.8985 62.4983 33.0364 62.3759 33.1463 62.2301C33.2562 62.0843 33.3358 61.918 33.3806 61.741C33.4253 61.564 33.4342 61.3799 33.4067 61.1994C33.3792 61.0189 33.316 60.8457 33.2206 60.69ZM23.3506 74.21C22.4729 74.7214 21.4893 75.0239 20.476 75.0941C19.4626 75.1644 18.4467 75.0005 17.5068 74.6152C16.567 74.2298 15.7284 73.6334 15.056 72.872C14.3836 72.1106 13.8955 71.2047 13.6293 70.2244C13.3632 69.2441 13.3262 68.2157 13.5213 67.2188C13.7164 66.2219 14.1382 65.2833 14.7542 64.4756C15.3702 63.6679 16.1638 63.0127 17.0735 62.5609C17.9833 62.1091 18.9848 61.8727 20.0006 61.87C20.5646 61.8686 21.1263 61.9426 21.6706 62.09C22.9374 62.4197 24.0782 63.117 24.9493 64.094C25.8204 65.0709 26.3828 66.2839 26.5657 67.58C26.7485 68.8761 26.5437 70.1973 25.9769 71.3772C25.4101 72.557 24.5067 73.5427 23.3806 74.21H23.3506Z" fill="#0C2742"/>
<path d="M88.0899 27.73C86.8819 25.7075 84.9564 24.2143 82.6969 23.5477C80.4374 22.8812 78.0097 23.0901 75.8974 24.1331C73.7851 25.176 72.1431 26.9763 71.2985 29.1755C70.4539 31.3746 70.4687 33.8112 71.3399 36L67.2599 38.41C66.9469 38.5956 66.7206 38.898 66.6305 39.2506C66.5405 39.6031 66.5942 39.977 66.7799 40.29C66.9656 40.6029 67.2679 40.8293 67.6205 40.9193C67.9731 41.0093 68.3469 40.9556 68.6599 40.77L72.7399 38.36C73.9962 39.9318 75.7304 41.0516 77.6799 41.55C78.4476 41.7479 79.2371 41.8487 80.0299 41.85C81.6814 41.846 83.3026 41.4061 84.7295 40.5747C86.1565 39.7433 87.3387 38.5499 88.1565 37.1151C88.9743 35.6803 89.3989 34.055 89.3872 32.4036C89.3755 30.7521 88.928 29.133 88.0899 27.71V27.73ZM86.4299 34.15C86.1164 35.343 85.4753 36.4244 84.5791 37.2721C83.683 38.1197 82.5676 38.6996 81.359 38.9463C80.1504 39.193 78.8969 39.0966 77.7402 38.668C76.5836 38.2394 75.5699 37.4957 74.8139 36.521C74.0579 35.5464 73.5898 34.3796 73.4623 33.1527C73.3349 31.9258 73.5534 30.6877 74.0929 29.5784C74.6325 28.4692 75.4717 27.5331 76.5156 26.876C77.5595 26.2188 78.7664 25.8669 79.9999 25.86C80.5639 25.8586 81.1255 25.9326 81.6699 26.08C83.3705 26.5201 84.827 27.6171 85.7195 29.1302C86.612 30.6433 86.8675 32.4487 86.4299 34.15Z" fill="#0C2742"/>
</svg>
