<svg width="24" height="24" viewBox="0 0 24 24" fill="none" xmlns="http://www.w3.org/2000/svg">
<path fill-rule="evenodd" clip-rule="evenodd" d="M6.0849 4.49917C5.27874 4.49917 4.77586 5.22156 5.00616 5.90411C5.83193 8.35138 7.37076 12.0329 9.66559 14.3278C11.9604 16.6226 15.642 18.1614 18.0893 18.9872C18.7717 19.2175 19.4942 18.7147 19.4942 17.9084V15.4235C19.4942 15.3346 19.446 15.2527 19.3683 15.2094L17.2037 14.006C17.133 13.9667 17.0475 13.9648 16.9752 14.001L14.6668 15.1552C14.5225 15.2274 14.3584 15.25 14.1999 15.2196L14.3383 14.498C14.1999 15.2196 14.1999 15.2196 14.1999 15.2196L14.1978 15.2192L14.195 15.2186L14.1876 15.2172L14.1655 15.2126C14.1475 15.2087 14.1231 15.2033 14.0929 15.1962C14.0325 15.1819 13.9484 15.1606 13.8448 15.1307C13.6379 15.071 13.3513 14.9765 13.0182 14.8346C12.3548 14.5519 11.4889 14.073 10.7046 13.2888C9.92044 12.5046 9.44026 11.6374 9.15625 10.9731C9.01361 10.6395 8.91844 10.3523 8.85819 10.1451C8.82802 10.0413 8.80647 9.95712 8.79203 9.89662C8.7848 9.86636 8.77934 9.84198 8.77546 9.82399L8.77079 9.80185L8.7693 9.79448L8.76876 9.79174L8.76854 9.79061C8.76854 9.79061 8.76835 9.78964 9.48952 9.64936L8.76854 9.79061C8.7376 9.63154 8.75992 9.46574 8.83239 9.3208L9.98674 7.01205C10.0229 6.93982 10.0211 6.85431 9.98183 6.78363L8.78362 4.62524C8.7404 4.54743 8.65839 4.49917 8.56949 4.49917H6.0849ZM10.2688 9.73364L10.2692 9.73486C10.3154 9.89386 10.3913 10.1242 10.5073 10.3955C10.7406 10.9411 11.1277 11.6339 11.7436 12.2497M11.7436 12.2497C12.3594 12.8655 13.0505 13.2511 13.5942 13.4828C13.8646 13.598 14.094 13.6732 14.2523 13.7189L16.318 12.6868C16.8243 12.4336 17.423 12.4467 17.9177 12.7217L20.0823 13.9252C20.6262 14.2276 20.9636 14.8011 20.9636 15.4235V17.9084C20.9636 19.6332 19.3351 20.9584 17.6195 20.3794C15.1414 19.5433 11.1776 17.9178 8.62657 15.3668C6.07556 12.8158 4.45004 8.8519 3.61389 6.37389C3.03503 4.6583 4.36016 3.02979 6.0849 3.02979H8.56949C9.19225 3.02979 9.76599 3.36753 10.0683 3.91197L11.2665 6.07045C11.5411 6.56497 11.554 7.16316 11.301 7.66917L10.2688 9.73364" fill="#1C1B1E"/>
</svg>
