<svg width="84" height="82" viewBox="0 0 84 82" fill="none" xmlns="http://www.w3.org/2000/svg">
<path d="M41.4187 80.9444L1.45298 40.9862L41.4187 1.02795" stroke="#0C2742" stroke-width="0.974775"/>
<path d="M43.4977 41.0643H44.8837C45.8627 41.0643 46.3027 40.5913 46.3027 39.8213C46.3027 39.0293 45.8627 38.5673 44.8837 38.5673H43.4977V41.0643ZM47.5897 39.8213C47.5897 40.9103 46.8747 42.0873 44.8837 42.0873H43.4977V45.1893H42.2437V37.5443H44.8837C46.6987 37.5443 47.5897 38.5783 47.5897 39.8213ZM56.6947 39.8323C56.6947 39.0623 56.2547 38.5673 55.2757 38.5673H53.8897V41.1303H55.2757C56.2547 41.1303 56.6947 40.5913 56.6947 39.8323ZM52.6357 37.5443H55.2757C57.0907 37.5443 57.9817 38.5893 57.9817 39.8323C57.9817 40.7343 57.4977 41.7023 56.2107 42.0213L58.1027 45.1893H56.6067L54.8467 42.1313H53.8897V45.1893H52.6357V37.5443ZM67.6599 37.5333V38.5563H64.6899V40.8003H67.3299V41.8233H64.6899V44.1663H67.6599V45.1893H63.4359V37.5333H67.6599ZM76.0465 43.9023L78.3235 37.5443H79.6435L76.7725 45.1893H75.3205L72.4385 37.5443H73.7805L76.0465 43.9023Z" fill="#6D6D6D"/>
</svg>
