<svg width="19" height="15" viewBox="0 0 19 15" fill="none" xmlns="http://www.w3.org/2000/svg">
<path d="M16.7017 3.66455C16.7017 3.84033 16.7017 3.98096 16.7017 4.15674C16.7017 9.04346 13.0103 14.6333 6.2251 14.6333C4.11572 14.6333 2.18213 14.0356 0.564941 12.981C0.846191 13.0161 1.12744 13.0513 1.44385 13.0513C3.1665 13.0513 4.74854 12.4536 6.01416 11.4692C4.39697 11.4341 3.02588 10.3794 2.56885 8.90283C2.81494 8.93799 3.02588 8.97314 3.27197 8.97314C3.58838 8.97314 3.93994 8.90283 4.22119 8.83252C2.53369 8.48096 1.26807 7.00439 1.26807 5.21143V5.17627C1.76025 5.45752 2.35791 5.59814 2.95557 5.6333C1.93604 4.96533 1.30322 3.84033 1.30322 2.57471C1.30322 1.87158 1.479 1.23877 1.79541 0.711426C3.62354 2.92627 6.36572 4.40283 9.42432 4.57861C9.354 4.29736 9.31885 4.01611 9.31885 3.73486C9.31885 1.6958 10.9712 0.043457 13.0103 0.043457C14.0649 0.043457 15.0142 0.465332 15.7173 1.20361C16.5259 1.02783 17.3345 0.711426 18.0376 0.289551C17.7563 1.16846 17.1938 1.87158 16.4204 2.32861C17.1587 2.2583 17.897 2.04736 18.5298 1.76611C18.0376 2.50439 17.4048 3.13721 16.7017 3.66455Z" fill="#C0C0C0"/>
</svg>
