<svg width="21" height="21" viewBox="0 0 21 21" fill="none" xmlns="http://www.w3.org/2000/svg">
<path d="M10.986 0.756348C16.5145 0.756348 20.986 5.22778 20.986 10.7563C20.986 16.2849 16.5145 20.7563 10.986 20.7563C5.45739 20.7563 0.985962 16.2849 0.985962 10.7563C0.985962 5.22778 5.45739 0.756348 10.986 0.756348ZM9.15739 16.0278C13.586 16.0278 16.0145 12.3563 16.0145 9.17063V8.85635C16.486 8.51349 16.9002 8.08492 17.2145 7.5992C16.786 7.78492 16.3145 7.91349 15.8288 7.98492C16.3288 7.68492 16.7145 7.21349 16.886 6.65635C16.4145 6.92778 15.9002 7.12778 15.3574 7.24206C14.9145 6.77063 14.286 6.48492 13.6002 6.48492C12.2717 6.48492 11.186 7.57063 11.186 8.8992C11.186 9.08492 11.2002 9.27063 11.2574 9.44206C9.25739 9.34206 7.47168 8.38492 6.28596 6.92778C6.08596 7.28492 5.95739 7.69921 5.95739 8.14206C5.95739 8.97063 6.38596 9.71349 7.02882 10.1421C6.62882 10.1421 6.25739 10.0278 5.9431 9.84206V9.87063C5.9431 11.0421 6.77168 12.0135 7.87168 12.2421C7.67168 12.2992 7.45739 12.3278 7.24311 12.3278C7.08596 12.3278 6.9431 12.3135 6.78596 12.2849C7.08596 13.2421 7.98596 13.9421 9.02882 13.9563C8.20025 14.5992 7.15739 14.9849 6.02882 14.9849C5.82882 14.9849 5.64311 14.9849 5.45739 14.9563C6.51453 15.6421 7.78596 16.0421 9.14311 16.0421" fill="#0C2742"/>
</svg>
