<svg width="55" height="56" viewBox="0 0 55 56" fill="none" xmlns="http://www.w3.org/2000/svg">
<g clip-path="url(#clip0_0_338)">
<path d="M44.6022 6.19387C46.398 7.60187 47.6355 9.87612 48.1415 12.2576C48.2028 12.277 48.2625 12.3009 48.3202 12.3291L53.944 14.9306C54.2583 15.075 54.5248 15.3063 54.7119 15.5972C54.8991 15.8881 54.999 16.2265 55 16.5724V50.5816C54.998 50.8641 54.9305 51.1423 54.803 51.3944C54.6754 51.6465 54.4911 51.8656 54.2647 52.0345C54.0382 52.2034 53.7757 52.3175 53.4977 52.368C53.2197 52.4184 52.9339 52.4037 52.6625 52.3251L37.0728 47.9251L18.5378 53.0346C18.2033 53.1265 17.8499 53.1227 17.5175 53.0236L1.3035 48.1974C0.928732 48.0873 0.599472 47.8593 0.364637 47.5471C0.129803 47.235 0.00192406 46.8555 0 46.4649L0 11.8451C0 10.6351 1.177 9.76612 2.35125 10.1071L18.0317 14.6749L26.0012 12.2356C26.1109 12.2032 26.2232 12.1802 26.3368 12.1669C26.6447 10.3629 27.5055 8.63037 28.9493 6.94187C30.6625 4.93437 33.6682 3.75737 36.597 3.61712C39.6357 3.47137 41.9568 4.12037 44.5995 6.19112L44.6022 6.19387ZM3.66575 14.2734V45.1146L17.0583 49.0994V18.1701L3.66575 14.2734ZM26.2405 15.9619L20.724 17.6476V48.6649L34.6527 44.8314V35.7701C34.6527 34.7691 35.475 33.9579 36.487 33.9579C37.499 33.9579 38.3185 34.7691 38.3185 35.7729V44.5096L51.3343 48.1809V17.7246L48.2543 16.2946C48.202 16.5971 48.136 16.8941 48.0535 17.1829C47.4555 19.2915 46.4523 21.2633 45.1 22.9881L38.2882 31.4939C38.1089 31.7175 37.8798 31.8962 37.6193 32.0158C37.3587 32.1353 37.0739 32.1924 36.7874 32.1826C36.5009 32.1727 36.2206 32.0961 35.9689 31.9589C35.7172 31.8216 35.501 31.6276 35.3375 31.3921L28.9712 22.1714C27.9207 20.7029 27.1838 19.3939 26.7685 18.2224C26.5078 17.4912 26.3307 16.7329 26.2405 15.9619ZM36.773 7.24162C34.7765 7.33787 32.725 8.14087 31.7488 9.28212C30.5745 10.6571 29.997 11.9441 29.8815 13.2476C29.744 14.8179 29.8375 15.9261 30.228 17.0234C30.5167 17.8346 31.0915 18.8631 31.9797 20.1034L36.96 27.3139L42.2125 20.7551C43.2722 19.4009 44.0577 17.8531 44.5252 16.1984C45.1852 13.8884 44.1898 10.4949 42.3252 9.03737C40.414 7.53862 38.9702 7.13437 36.7757 7.24162H36.773ZM37.1525 9.15837C40.1885 9.15837 42.6525 11.5921 42.6525 14.5951C42.6485 15.3133 42.5031 16.0237 42.2245 16.6856C41.946 17.3476 41.5397 17.9481 41.0289 18.453C40.5182 18.9579 39.9129 19.3572 39.2478 19.6281C38.5827 19.899 37.8707 20.0362 37.1525 20.0319C34.1165 20.0319 31.6525 17.5981 31.6525 14.5951C31.6525 11.5921 34.1165 9.15837 37.1525 9.15837ZM37.1525 12.7829C36.9131 12.7814 36.6757 12.8271 36.4539 12.9174C36.2322 13.0077 36.0304 13.1408 35.86 13.3091C35.6897 13.4774 35.5542 13.6776 35.4612 13.8982C35.3683 14.1189 35.3197 14.3557 35.3183 14.5951C35.3183 15.5961 36.1405 16.4074 37.1525 16.4074C37.3919 16.4085 37.6292 16.3624 37.8509 16.2717C38.0725 16.1811 38.2741 16.0477 38.4442 15.8792C38.6142 15.7107 38.7494 15.5103 38.8421 15.2895C38.9347 15.0687 38.9829 14.8318 38.984 14.5924C38.9804 14.1098 38.7855 13.6483 38.4422 13.3091C38.0989 12.9699 37.6351 12.7807 37.1525 12.7829Z" fill="#171717"/>
</g>
<defs>
<clipPath id="clip0_0_338">
<rect width="55" height="55" fill="white" transform="translate(0 0.850586)"/>
</clipPath>
</defs>
</svg>
